<?xml version='1.0' encoding='UTF-8'?>
<svg xmlns="http://www.w3.org/2000/svg" version="1.1" width="124" height="153" viewBox="0 0 124 153">
<!--
Rot z: 0.0, rot y: 90.0 of: Rot z: 90.0, rot y: 0.0 of: Rot z: 0.0, rot y: 90.0 of: Cell: RIFL
[ 0, 0, 57, 87 ]
-->
<rect x="0.0" y="0.0" width="57.0" height="87.0" style="fill:none;stroke:black;stroke-width:1;"/>
<text x="25.0" y="62.0" fill="black" font-size="8px">
10.0 μm</text>
<line x1="24.983599999999996" y1="55.07338" x2="24.983599999999996" y2="55.073379" style="stroke:red;stroke-width:4.0"/>
<line x1="24.983599999999996" y1="55.07338" x2="24.983599999999996" y2="55.03166" style="stroke:blue;stroke-width:1.0"/>
<line x1="24.983599999999996" y1="55.03166" x2="24.983599999999996" y2="54.45035" style="stroke:blue;stroke-width:1.0"/>
<line x1="24.983599999999996" y1="54.45035" x2="24.983599999999996" y2="53.52798" style="stroke:blue;stroke-width:1.0"/>
<line x1="24.983599999999996" y1="53.52798" x2="24.983599999999996" y2="48.346639999999994" style="stroke:blue;stroke-width:1.0"/>
<line x1="24.983599999999996" y1="48.346639999999994" x2="24.9836" y2="39.79123" style="stroke:blue;stroke-width:1.0"/>
<line x1="24.9836" y1="39.79123" x2="24.9836" y2="38.06986" style="stroke:blue;stroke-width:1.0"/>
<line x1="24.9836" y1="38.06986" x2="24.21813" y2="35.72099" style="stroke:blue;stroke-width:1.0"/>
<line x1="24.21813" y1="35.72099" x2="22.08183" y2="33.5661" style="stroke:blue;stroke-width:1.0"/>
<line x1="22.08183" y1="33.5661" x2="20.51299" y2="30.93864" style="stroke:blue;stroke-width:1.0"/>
<line x1="20.51299" y1="30.93864" x2="20.0" y2="27.923379999999995" style="stroke:blue;stroke-width:1.0"/>
<line x1="20.0" y1="27.923379999999995" x2="20.54608" y2="24.886159999999997" style="stroke:blue;stroke-width:1.0"/>
<line x1="20.54608" y1="24.886159999999997" x2="22.08082" y2="22.308769999999996" style="stroke:blue;stroke-width:1.0"/>
<line x1="22.08082" y1="22.308769999999996" x2="24.388099999999998" y2="20.59171" style="stroke:blue;stroke-width:1.0"/>
<line x1="24.388099999999998" y1="20.59171" x2="27.09281" y2="20.0" style="stroke:blue;stroke-width:1.0"/>
<line x1="37.59281" y1="67.07338" x2="27.592809999999997" y2="67.07338" style="stroke:green;stroke-width:1.0"/>
<circle cx="37.59281" cy="67.07338" r="0.5" stroke-width="0" fill="yellow"/>
<line x1="37.59281" y1="67.07338" x2="37.59281" y2="57.07338" style="stroke:red;stroke-width:1.0"/>
<!--
Rot z: 0.0, rot y: 90.0 of: Cell: RIFL
[ 57, 0, 87, 86 ]
-->
<rect x="57.0" y="0.0" width="87.0" height="86.0" style="fill:none;stroke:black;stroke-width:1;"/>
<line x1="89.0" y1="20.0" x2="89.000001" y2="20.0" style="stroke:red;stroke-width:4.0"/>
<line x1="89.0" y1="20.0" x2="89.04172" y2="20.12446" style="stroke:blue;stroke-width:1.0"/>
<line x1="89.04172" y1="20.12446" x2="89.62303" y2="22.868239999999957" style="stroke:blue;stroke-width:1.0"/>
<line x1="89.62303" y1="22.868239999999957" x2="90.5454" y2="27.69589000000002" style="stroke:blue;stroke-width:1.0"/>
<line x1="90.5454" y1="27.69589000000002" x2="95.72673999999999" y2="36.770309999999995" style="stroke:blue;stroke-width:1.0"/>
<line x1="95.72673999999999" y1="36.770309999999995" x2="104.28214999999999" y2="51.547349999999994" style="stroke:blue;stroke-width:1.0"/>
<line x1="104.28214999999999" y1="51.547349999999994" x2="106.00352" y2="52.960980000000006" style="stroke:blue;stroke-width:1.0"/>
<line x1="106.00352" y1="52.960980000000006" x2="108.35239" y2="53.28922" style="stroke:blue;stroke-width:1.0"/>
<line x1="108.35239" y1="53.28922" x2="110.50728" y2="53.563710000000015" style="stroke:blue;stroke-width:1.0"/>
<line x1="110.50728" y1="53.563710000000015" x2="113.13474" y2="53.93955" style="stroke:blue;stroke-width:1.0"/>
<line x1="113.13474" y1="53.93955" x2="116.14999999999999" y2="54.36120999999997" style="stroke:blue;stroke-width:1.0"/>
<line x1="116.14999999999999" y1="54.36120999999997" x2="119.18722" y2="54.81673999999998" style="stroke:blue;stroke-width:1.0"/>
<line x1="119.18722" y1="54.81673999999998" x2="121.76460999999999" y2="55.15442999999999" style="stroke:blue;stroke-width:1.0"/>
<line x1="121.76460999999999" y1="55.15442999999999" x2="123.48167" y2="55.45670999999999" style="stroke:blue;stroke-width:1.0"/>
<line x1="123.48167" y1="55.45670999999999" x2="124.07338" y2="55.525199999999984" style="stroke:blue;stroke-width:1.0"/>
<circle cx="77.0" cy="66.02519999999998" r="0.5" stroke-width="0" fill="green"/>
<line x1="77.0" y1="66.02519999999998" x2="77.0" y2="56.025199999999984" style="stroke:yellow;stroke-width:1.0"/>
<line x1="77.0" y1="66.02519999999998" x2="87.0" y2="66.02519999999998" style="stroke:red;stroke-width:1.0"/>
<!--
Rot z: 0.0, rot y: 0.0 of: Cell: RIFL
[ 0, 87, 57, 86 ]
-->
<rect x="0.0" y="87.0" width="57.0" height="86.0" style="fill:none;stroke:black;stroke-width:1;"/>
<circle cx="32.609210000000004" cy="107.0" r="2.0" stroke-width="0" fill="red"/>
<line x1="32.609210000000004" y1="107.0" x2="32.609210000000004" y2="107.12446" style="stroke:blue;stroke-width:1.0"/>
<line x1="32.609210000000004" y1="107.12446" x2="32.609210000000004" y2="109.86823999999996" style="stroke:blue;stroke-width:1.0"/>
<line x1="32.609210000000004" y1="109.86823999999996" x2="32.609210000000004" y2="114.69589000000002" style="stroke:blue;stroke-width:1.0"/>
<line x1="32.609210000000004" y1="114.69589000000002" x2="32.609210000000004" y2="123.77031" style="stroke:blue;stroke-width:1.0"/>
<line x1="32.609210000000004" y1="123.77031" x2="32.609210000000004" y2="138.54735" style="stroke:blue;stroke-width:1.0"/>
<line x1="32.609210000000004" y1="138.54735" x2="32.609210000000004" y2="139.96098" style="stroke:blue;stroke-width:1.0"/>
<line x1="32.609210000000004" y1="139.96098" x2="33.37468" y2="140.28922" style="stroke:blue;stroke-width:1.0"/>
<line x1="33.37468" y1="140.28922" x2="35.51098" y2="140.56371000000001" style="stroke:blue;stroke-width:1.0"/>
<line x1="35.51098" y1="140.56371000000001" x2="37.07982" y2="140.93955" style="stroke:blue;stroke-width:1.0"/>
<line x1="37.07982" y1="140.93955" x2="37.59281" y2="141.36120999999997" style="stroke:blue;stroke-width:1.0"/>
<line x1="37.59281" y1="141.36120999999997" x2="37.04673" y2="141.81673999999998" style="stroke:blue;stroke-width:1.0"/>
<line x1="37.04673" y1="141.81673999999998" x2="35.51199" y2="142.15443" style="stroke:blue;stroke-width:1.0"/>
<line x1="35.51199" y1="142.15443" x2="33.20471" y2="142.45671" style="stroke:blue;stroke-width:1.0"/>
<line x1="33.20471" y1="142.45671" x2="30.5" y2="142.52519999999998" style="stroke:blue;stroke-width:1.0"/>
<line x1="20.0" y1="153.02519999999998" x2="30.0" y2="153.02519999999998" style="stroke:green;stroke-width:1.0"/>
<line x1="20.0" y1="153.02519999999998" x2="20.0" y2="143.02519999999998" style="stroke:yellow;stroke-width:1.0"/>
<circle cx="20.0" cy="153.02519999999998" r="0.5" stroke-width="0" fill="red"/>
<!--
Rot z: -10.0, rot y: -20.0 of: Cell: RIFL
[ 57, 86, 66, 78 ]
-->
<rect x="57.0" y="86.0" width="66.0" height="78.0" style="fill:none;stroke:black;stroke-width:1;"/>
<line x1="97.45986355165782" y1="108.42270006767475" x2="97.45986320963769" y2="108.42270006767475" style="stroke:red;stroke-width:4.0"/>
<line x1="97.45986355165782" y1="108.42270006767475" x2="97.42528559737448" y2="108.54526924061466" style="stroke:blue;stroke-width:1.0"/>
<line x1="97.42528559737448" y1="108.54526924061466" x2="96.77874706631732" y2="111.24736505717445" style="stroke:blue;stroke-width:1.0"/>
<line x1="96.77874706631732" y1="111.24736505717445" x2="95.6755217591749" y2="116.00167220600386" style="stroke:blue;stroke-width:1.0"/>
<line x1="95.6755217591749" y1="116.00167220600386" x2="92.42267235794806" y2="124.93823137609289" style="stroke:blue;stroke-width:1.0"/>
<line x1="92.42267235794806" y1="124.93823137609289" x2="87.08529283719388" y2="139.49077493466442" style="stroke:blue;stroke-width:1.0"/>
<line x1="87.08529283719388" y1="139.49077493466442" x2="86.265879259775" y2="140.88292871855506" style="stroke:blue;stroke-width:1.0"/>
<line x1="86.265879259775" y1="140.88292871855506" x2="86.11733617290692" y2="141.3391044859625" style="stroke:blue;stroke-width:1.0"/>
<line x1="86.11733617290692" y1="141.3391044859625" x2="87.3124976668321" y2="141.9803889680367" style="stroke:blue;stroke-width:1.0"/>
<line x1="87.3124976668321" y1="141.9803889680367" x2="87.80435593145123" y2="142.62294532097982" style="stroke:blue;stroke-width:1.0"/>
<line x1="87.80435593145123" y1="142.62294532097982" x2="87.17900096993715" y2="143.12727913677625" style="stroke:blue;stroke-width:1.0"/>
<line x1="87.17900096993715" y1="143.12727913677625" x2="85.56052754228011" y2="143.48106281564552" style="stroke:blue;stroke-width:1.0"/>
<line x1="85.56052754228011" y1="143.48106281564552" x2="83.2036315321011" y2="143.5471177415677" style="stroke:blue;stroke-width:1.0"/>
<line x1="83.2036315321011" y1="143.5471177415677" x2="80.43184244736803" y2="143.44415046178088" style="stroke:blue;stroke-width:1.0"/>
<line x1="80.43184244736803" y1="143.44415046178088" x2="77.71530631644526" y2="143.04193198216714" style="stroke:blue;stroke-width:1.0"/>
<line x1="89.85085281282981" y1="143.4475117698398" x2="97.34007335265756" y2="144.8528134785445" style="stroke:green;stroke-width:0.5"/>
<line x1="96.05564947011953" y1="106.00000000000003" x2="103.54487000994726" y2="107.40530170870468" style="stroke:green;stroke-width:0.5"/>
<line x1="83.20479665728972" y1="106.00000000000003" x2="90.69401719711746" y2="107.40530170870468" style="stroke:green;stroke-width:0.5"/>
<line x1="77.0" y1="143.4475117698398" x2="84.48922053982774" y2="144.8528134785445" style="stroke:green;stroke-width:0.5"/>
<line x1="89.85085281282981" y1="143.4475117698398" x2="96.05564947011953" y2="106.00000000000003" style="stroke:yellow;stroke-width:0.5"/>
<line x1="97.34007335265756" y1="144.8528134785445" x2="103.54487000994726" y2="107.40530170870468" style="stroke:yellow;stroke-width:0.5"/>
<line x1="77.0" y1="143.4475117698398" x2="83.20479665728972" y2="106.00000000000003" style="stroke:yellow;stroke-width:0.5"/>
<line x1="84.48922053982774" y1="144.8528134785445" x2="90.69401719711746" y2="107.40530170870468" style="stroke:yellow;stroke-width:0.5"/>
<line x1="89.85085281282981" y1="143.4475117698398" x2="77.0" y2="143.4475117698398" style="stroke:red;stroke-width:0.5"/>
<line x1="97.34007335265756" y1="144.8528134785445" x2="84.48922053982774" y2="144.8528134785445" style="stroke:red;stroke-width:0.5"/>
<line x1="96.05564947011953" y1="106.00000000000003" x2="83.20479665728972" y2="106.00000000000003" style="stroke:red;stroke-width:0.5"/>
<line x1="103.54487000994726" y1="107.40530170870468" x2="90.69401719711746" y2="107.40530170870468" style="stroke:red;stroke-width:0.5"/>
</svg>
