<?xml version='1.0' encoding='UTF-8'?>
<svg xmlns="http://www.w3.org/2000/svg" version="1.1" width="420" height="1407" viewBox="0 0 420 1407">
<!--
Rot z: 0.0, rot y: 90.0 of: Cell: SMBVR
[ 0, 0, 160, 721 ]
-->
<rect x="0.0" y="0.0" width="160.0" height="721.0" style="fill:none;stroke:black;stroke-width:1;"/>
<text x="25.0" y="696.0" fill="black" font-size="20px">
100.0 μm</text>
<line x1="127.29823999999999" y1="680.6762" x2="127.29824099999999" y2="680.6762" style="stroke:red;stroke-width:3.0"/>
<line x1="127.29823999999999" y1="680.6762" x2="127.29823999999999" y2="680.67614" style="stroke:blue;stroke-width:1.0"/>
<line x1="127.29823999999999" y1="680.67614" x2="126.97559" y2="681.23479" style="stroke:blue;stroke-width:1.0"/>
<line x1="126.97559" y1="681.23479" x2="126.88644" y2="681.9958899999999" style="stroke:blue;stroke-width:1.0"/>
<line x1="126.88644" y1="681.9958899999999" x2="127.21672" y2="683.4507" style="stroke:blue;stroke-width:1.0"/>
<line x1="127.21672" y1="683.4507" x2="129.18653" y2="686.7798" style="stroke:blue;stroke-width:1.0"/>
<line x1="129.18653" y1="686.7798" x2="131.27170999999998" y2="690.04096" style="stroke:blue;stroke-width:1.0"/>
<line x1="131.27170999999998" y1="690.04096" x2="132.01554" y2="690.3868399999999" style="stroke:blue;stroke-width:1.0"/>
<line x1="132.01554" y1="690.3868399999999" x2="134.07659999999998" y2="690.63931" style="stroke:blue;stroke-width:1.0"/>
<line x1="134.07659999999998" y1="690.63931" x2="136.70395" y2="691.01522" style="stroke:blue;stroke-width:1.0"/>
<line x1="136.70395" y1="691.01522" x2="139.72186" y2="691.44433" style="stroke:blue;stroke-width:1.0"/>
<line x1="139.72186" y1="691.44433" x2="140.05811999999997" y2="691.4368199999999" style="stroke:blue;stroke-width:1.0"/>
<line x1="140.05811999999997" y1="691.4368199999999" x2="140.28426000000002" y2="691.43688" style="stroke:blue;stroke-width:1.0"/>
<line x1="140.28426000000002" y1="691.43688" x2="140.12768" y2="691.43689" style="stroke:blue;stroke-width:1.0"/>
<line x1="140.12768" y1="691.43689" x2="139.76241" y2="691.43689" style="stroke:blue;stroke-width:1.0"/>
<line x1="139.76241" y1="691.43689" x2="137.09505" y2="691.01518" style="stroke:blue;stroke-width:1.0"/>
<line x1="137.09505" y1="691.01518" x2="134.46769999999998" y2="690.63932" style="stroke:blue;stroke-width:1.0"/>
<line x1="134.46769999999998" y1="690.63932" x2="132.73967" y2="690.38687" style="stroke:blue;stroke-width:1.0"/>
<line x1="132.73967" y1="690.38687" x2="131.3704" y2="690.33581" style="stroke:blue;stroke-width:1.0"/>
<line x1="131.3704" y1="690.33581" x2="130.14701" y2="689.30756" style="stroke:blue;stroke-width:1.0"/>
<line x1="130.14701" y1="689.30756" x2="126.53495" y2="683.30265" style="stroke:blue;stroke-width:1.0"/>
<line x1="126.53495" y1="683.30265" x2="126.05177" y2="681.32407" style="stroke:blue;stroke-width:1.0"/>
<line x1="126.05177" y1="681.32407" x2="120.92356" y2="677.16633" style="stroke:blue;stroke-width:1.0"/>
<line x1="120.92356" y1="677.16633" x2="115.29325" y2="668.0169599999999" style="stroke:blue;stroke-width:1.0"/>
<line x1="115.29325" y1="668.0169599999999" x2="109.83904" y2="658.74127" style="stroke:blue;stroke-width:1.0"/>
<line x1="109.83904" y1="658.74127" x2="100.53559" y2="645.27244" style="stroke:blue;stroke-width:1.0"/>
<line x1="100.53559" y1="645.27244" x2="91.68106" y2="631.1558699999999" style="stroke:blue;stroke-width:1.0"/>
<line x1="91.68106" y1="631.1558699999999" x2="80.15893" y2="613.9957999999999" style="stroke:blue;stroke-width:1.0"/>
<line x1="80.15893" y1="613.9957999999999" x2="58.68573" y2="582.54629" style="stroke:blue;stroke-width:1.0"/>
<line x1="58.68573" y1="582.54629" x2="42.17111" y2="550.98339" style="stroke:blue;stroke-width:1.0"/>
<line x1="42.17111" y1="550.98339" x2="36.342009999999995" y2="533.17208" style="stroke:blue;stroke-width:1.0"/>
<line x1="36.342009999999995" y1="533.17208" x2="32.98157" y2="517.3398099999999" style="stroke:blue;stroke-width:1.0"/>
<line x1="32.98157" y1="517.3398099999999" x2="30.685179999999995" y2="502.24671" style="stroke:blue;stroke-width:1.0"/>
<line x1="30.685179999999995" y1="502.24671" x2="30.5" y2="467.82403" style="stroke:blue;stroke-width:1.0"/>
<line x1="30.5" y1="467.82403" x2="34.05455" y2="455.7732" style="stroke:blue;stroke-width:1.0"/>
<line x1="34.05455" y1="455.7732" x2="46.23979" y2="417.56714" style="stroke:blue;stroke-width:1.0"/>
<line x1="46.23979" y1="417.56714" x2="64.02114999999999" y2="383.77166" style="stroke:blue;stroke-width:1.0"/>
<line x1="64.02114999999999" y1="383.77166" x2="64.63071" y2="382.64518" style="stroke:blue;stroke-width:1.0"/>
<line x1="64.63071" y1="382.64518" x2="68.75548" y2="379.5619" style="stroke:blue;stroke-width:1.0"/>
<line x1="68.75548" y1="379.5619" x2="72.47955999999999" y2="377.25915" style="stroke:blue;stroke-width:1.0"/>
<line x1="72.47955999999999" y1="377.25915" x2="77.24616999999999" y2="374.53351" style="stroke:blue;stroke-width:1.0"/>
<line x1="77.24616999999999" y1="374.53351" x2="81.42957" y2="372.51804" style="stroke:blue;stroke-width:1.0"/>
<line x1="81.42957" y1="372.51804" x2="85.75363999999999" y2="370.33117999999996" style="stroke:blue;stroke-width:1.0"/>
<line x1="85.75363999999999" y1="370.33117999999996" x2="86.33677" y2="369.34942" style="stroke:blue;stroke-width:1.0"/>
<line x1="86.33677" y1="369.34942" x2="106.22619999999999" y2="334.16616999999997" style="stroke:blue;stroke-width:1.0"/>
<line x1="106.22619999999999" y1="334.16616999999997" x2="108.81066" y2="329.5943" style="stroke:blue;stroke-width:1.0"/>
<line x1="108.81066" y1="329.5943" x2="109.79339999999999" y2="323.50019" style="stroke:blue;stroke-width:1.0"/>
<line x1="109.79339999999999" y1="323.50019" x2="114.27006" y2="295.73841999999996" style="stroke:blue;stroke-width:1.0"/>
<line x1="114.27006" y1="295.73841999999996" x2="111.74224" y2="246.24464999999998" style="stroke:blue;stroke-width:1.0"/>
<line x1="111.74224" y1="246.24464999999998" x2="95.29297" y2="192.68885999999998" style="stroke:blue;stroke-width:1.0"/>
<line x1="95.29297" y1="192.68885999999998" x2="87.30857" y2="164.45790999999997" style="stroke:blue;stroke-width:1.0"/>
<line x1="87.30857" y1="164.45790999999997" x2="81.33362" y2="127.50480999999996" style="stroke:blue;stroke-width:1.0"/>
<line x1="81.33362" y1="127.50480999999996" x2="78.83059999999999" y2="97.19039999999995" style="stroke:blue;stroke-width:1.0"/>
<line x1="78.83059999999999" y1="97.19039999999995" x2="81.93581999999999" y2="64.23122999999998" style="stroke:blue;stroke-width:1.0"/>
<line x1="81.93581999999999" y1="64.23122999999998" x2="93.28553" y2="29.788039999999967" style="stroke:blue;stroke-width:1.0"/>
<line x1="93.28553" y1="29.788039999999967" x2="98.02956999999999" y2="20.7038" style="stroke:blue;stroke-width:1.0"/>
<line x1="98.02956999999999" y1="20.7038" x2="98.55389" y2="20.0" style="stroke:blue;stroke-width:1.0"/>
<circle cx="20.0" cy="701.94433" r="1.5" stroke-width="0" fill="green"/>
<line x1="20.0" y1="701.94433" x2="20.0" y2="601.94433" style="stroke:yellow;stroke-width:3.0"/>
<line x1="20.0" y1="701.94433" x2="120.0" y2="701.94433" style="stroke:red;stroke-width:3.0"/>
<!--
Rot z: 0.0, rot y: 0.0 of: Cell: SMBVR
[ 160, 0, 140, 721 ]
-->
<rect x="160.0" y="0.0" width="140.0" height="721.0" style="fill:none;stroke:black;stroke-width:1;"/>
<circle cx="210.90716" cy="680.6762" r="1.5" stroke-width="0" fill="red"/>
<line x1="210.90716" y1="680.6762" x2="210.9071" y2="680.67614" style="stroke:blue;stroke-width:1.0"/>
<line x1="210.9071" y1="680.67614" x2="211.15257" y2="681.23479" style="stroke:blue;stroke-width:1.0"/>
<line x1="211.15257" y1="681.23479" x2="211.77808" y2="681.9958899999999" style="stroke:blue;stroke-width:1.0"/>
<line x1="211.77808" y1="681.9958899999999" x2="212.25857" y2="683.4507" style="stroke:blue;stroke-width:1.0"/>
<line x1="212.25857" y1="683.4507" x2="212.09324" y2="686.7798" style="stroke:blue;stroke-width:1.0"/>
<line x1="212.09324" y1="686.7798" x2="211.80939" y2="690.04096" style="stroke:blue;stroke-width:1.0"/>
<line x1="211.80939" y1="690.04096" x2="211.03085000000002" y2="690.3868399999999" style="stroke:blue;stroke-width:1.0"/>
<line x1="211.03085000000002" y1="690.3868399999999" x2="208.44025" y2="690.63931" style="stroke:blue;stroke-width:1.0"/>
<line x1="208.44025" y1="690.63931" x2="206.87142" y2="691.01522" style="stroke:blue;stroke-width:1.0"/>
<line x1="206.87142" y1="691.01522" x2="206.37269" y2="691.44433" style="stroke:blue;stroke-width:1.0"/>
<line x1="206.37269" y1="691.44433" x2="206.38469" y2="691.4368199999999" style="stroke:blue;stroke-width:1.0"/>
<line x1="206.38469" y1="691.4368199999999" x2="206.76739" y2="691.43688" style="stroke:blue;stroke-width:1.0"/>
<line x1="206.76739" y1="691.43688" x2="207.11534" y2="691.43689" style="stroke:blue;stroke-width:1.0"/>
<line x1="207.11534" y1="691.43689" x2="207.48076" y2="691.43689" style="stroke:blue;stroke-width:1.0"/>
<line x1="207.48076" y1="691.43689" x2="207.90677" y2="691.01518" style="stroke:blue;stroke-width:1.0"/>
<line x1="207.90677" y1="691.01518" x2="209.47555" y2="690.63932" style="stroke:blue;stroke-width:1.0"/>
<line x1="209.47555" y1="690.63932" x2="211.74481" y2="690.38687" style="stroke:blue;stroke-width:1.0"/>
<line x1="211.74481" y1="690.38687" x2="212.58698" y2="690.33581" style="stroke:blue;stroke-width:1.0"/>
<line x1="212.58698" y1="690.33581" x2="212.62446" y2="689.30756" style="stroke:blue;stroke-width:1.0"/>
<line x1="212.62446" y1="689.30756" x2="212.62446" y2="683.30265" style="stroke:blue;stroke-width:1.0"/>
<line x1="212.62446" y1="683.30265" x2="211.75016" y2="681.32407" style="stroke:blue;stroke-width:1.0"/>
<line x1="211.75016" y1="681.32407" x2="208.89597" y2="677.16633" style="stroke:blue;stroke-width:1.0"/>
<line x1="208.89597" y1="677.16633" x2="205.86962" y2="668.0169599999999" style="stroke:blue;stroke-width:1.0"/>
<line x1="205.86962" y1="668.0169599999999" x2="203.94956" y2="658.74127" style="stroke:blue;stroke-width:1.0"/>
<line x1="203.94956" y1="658.74127" x2="203.43218000000002" y2="645.27244" style="stroke:blue;stroke-width:1.0"/>
<line x1="203.43218000000002" y1="645.27244" x2="201.9774" y2="631.1558699999999" style="stroke:blue;stroke-width:1.0"/>
<line x1="201.9774" y1="631.1558699999999" x2="201.01393000000002" y2="613.9957999999999" style="stroke:blue;stroke-width:1.0"/>
<line x1="201.01393000000002" y1="613.9957999999999" x2="201.04987" y2="582.54629" style="stroke:blue;stroke-width:1.0"/>
<line x1="201.04987" y1="582.54629" x2="201.34917000000002" y2="550.98339" style="stroke:blue;stroke-width:1.0"/>
<line x1="201.34917000000002" y1="550.98339" x2="201.08456" y2="533.17208" style="stroke:blue;stroke-width:1.0"/>
<line x1="201.08456" y1="533.17208" x2="201.04096" y2="517.3398099999999" style="stroke:blue;stroke-width:1.0"/>
<line x1="201.04096" y1="517.3398099999999" x2="201.25269" y2="502.24671" style="stroke:blue;stroke-width:1.0"/>
<line x1="201.25269" y1="502.24671" x2="200.00293" y2="467.82403" style="stroke:blue;stroke-width:1.0"/>
<line x1="200.00293" y1="467.82403" x2="200.1963" y2="455.7732" style="stroke:blue;stroke-width:1.0"/>
<line x1="200.1963" y1="455.7732" x2="199.95647" y2="417.56714" style="stroke:blue;stroke-width:1.0"/>
<line x1="199.95647" y1="417.56714" x2="199.44954" y2="383.77166" style="stroke:blue;stroke-width:1.0"/>
<line x1="199.44954" y1="383.77166" x2="199.34368" y2="382.64518" style="stroke:blue;stroke-width:1.0"/>
<line x1="199.34368" y1="382.64518" x2="196.57041" y2="379.5619" style="stroke:blue;stroke-width:1.0"/>
<line x1="196.57041" y1="379.5619" x2="194.1477" y2="377.25915" style="stroke:blue;stroke-width:1.0"/>
<line x1="194.1477" y1="377.25915" x2="191.9309" y2="374.53351" style="stroke:blue;stroke-width:1.0"/>
<line x1="191.9309" y1="374.53351" x2="190.5" y2="372.51804" style="stroke:blue;stroke-width:1.0"/>
<line x1="190.5" y1="372.51804" x2="191.0415" y2="370.33117999999996" style="stroke:blue;stroke-width:1.0"/>
<line x1="191.0415" y1="370.33117999999996" x2="191.09812" y2="369.34942" style="stroke:blue;stroke-width:1.0"/>
<line x1="191.09812" y1="369.34942" x2="192.61064" y2="334.16616999999997" style="stroke:blue;stroke-width:1.0"/>
<line x1="192.61064" y1="334.16616999999997" x2="192.80722" y2="329.5943" style="stroke:blue;stroke-width:1.0"/>
<line x1="192.80722" y1="329.5943" x2="192.81061" y2="323.50019" style="stroke:blue;stroke-width:1.0"/>
<line x1="192.81061" y1="323.50019" x2="192.82617" y2="295.73841999999996" style="stroke:blue;stroke-width:1.0"/>
<line x1="192.82617" y1="295.73841999999996" x2="192.76689" y2="246.24464999999998" style="stroke:blue;stroke-width:1.0"/>
<line x1="192.76689" y1="246.24464999999998" x2="192.48684" y2="192.68885999999998" style="stroke:blue;stroke-width:1.0"/>
<line x1="192.48684" y1="192.68885999999998" x2="194.32373" y2="164.45790999999997" style="stroke:blue;stroke-width:1.0"/>
<line x1="194.32373" y1="164.45790999999997" x2="197.64379" y2="127.50480999999996" style="stroke:blue;stroke-width:1.0"/>
<line x1="197.64379" y1="127.50480999999996" x2="198.91909" y2="97.19039999999995" style="stroke:blue;stroke-width:1.0"/>
<line x1="198.91909" y1="97.19039999999995" x2="200.17307" y2="64.23122999999998" style="stroke:blue;stroke-width:1.0"/>
<line x1="200.17307" y1="64.23122999999998" x2="204.78513" y2="29.788039999999967" style="stroke:blue;stroke-width:1.0"/>
<line x1="204.78513" y1="29.788039999999967" x2="206.33271" y2="20.7038" style="stroke:blue;stroke-width:1.0"/>
<line x1="206.33271" y1="20.7038" x2="206.542" y2="20.0" style="stroke:blue;stroke-width:1.0"/>
<line x1="180.0" y1="701.94433" x2="280.0" y2="701.94433" style="stroke:green;stroke-width:3.0"/>
<line x1="180.0" y1="701.94433" x2="180.0" y2="601.94433" style="stroke:yellow;stroke-width:3.0"/>
<circle cx="180.0" cy="701.94433" r="1.5" stroke-width="0" fill="red"/>
<!--
Rot z: -10.0, rot y: -20.0 of: Cell: SMBVR
[ 0, 721, 209, 706 ]
-->
<rect x="0.0" y="721.0" width="209.0" height="706.0" style="fill:none;stroke:black;stroke-width:1;"/>
<line x1="45.79901034441208" y1="1395.7619381013412" x2="45.79901000239194" y2="1395.7619381013412" style="stroke:red;stroke-width:3.0"/>
<line x1="45.79901034441208" y1="1395.7619381013412" x2="45.798964609972046" y2="1395.7618685939854" style="stroke:blue;stroke-width:1.0"/>
<line x1="45.798964609972046" y1="1395.7618685939854" x2="46.04532119394233" y2="1396.3546568633774" style="stroke:blue;stroke-width:1.0"/>
<line x1="46.04532119394233" y1="1396.3546568633774" x2="46.5304764276849" y2="1397.2128127158076" style="stroke:blue;stroke-width:1.0"/>
<line x1="46.5304764276849" y1="1397.2128127158076" x2="46.62477747917772" y2="1398.7289570958544" style="stroke:blue;stroke-width:1.0"/>
<line x1="46.62477747917772" y1="1398.7289570958544" x2="45.25483473188229" y2="1401.9787713331937" style="stroke:blue;stroke-width:1.0"/>
<line x1="45.25483473188229" y1="1401.9787713331937" x2="43.74683891918424" y2="1405.1410969497763" style="stroke:blue;stroke-width:1.0"/>
<line x1="43.74683891918424" y1="1405.1410969497763" x2="42.715520968873804" y2="1405.3465302031473" style="stroke:blue;stroke-width:1.0"/>
<line x1="42.715520968873804" y1="1405.3465302031473" x2="39.57201572198008" y2="1405.1453116474863" style="stroke:blue;stroke-width:1.0"/>
<line x1="39.57201572198008" y1="1405.1453116474863" x2="37.16024835095813" y2="1405.243086259352" style="stroke:blue;stroke-width:1.0"/>
<line x1="37.16024835095813" y1="1405.243086259352" x2="35.5965089148289" y2="1405.5790735585992" style="stroke:blue;stroke-width:1.0"/>
<line x1="35.5965089148289" y1="1405.5790735585992" x2="35.49383167146786" y2="1405.573761430506" style="stroke:blue;stroke-width:1.0"/>
<line x1="35.49383167146786" y1="1405.573761430506" x2="35.77063437025454" y2="1405.6402756765644" style="stroke:blue;stroke-width:1.0"/>
<line x1="35.77063437025454" y1="1405.6402756765644" x2="36.14618495099107" y2="1405.700706408061" style="stroke:blue;stroke-width:1.0"/>
<line x1="36.14618495099107" y1="1405.700706408061" x2="36.60928037482195" y2="1405.764160925144" style="stroke:blue;stroke-width:1.0"/>
<line x1="36.60928037482195" y1="1405.764160925144" x2="37.984620854384616" y2="1405.4228335077892" style="stroke:blue;stroke-width:1.0"/>
<line x1="37.984620854384616" y1="1405.4228335077892" x2="40.39633379578209" y2="1405.3250994539026" style="stroke:blue;stroke-width:1.0"/>
<line x1="40.39633379578209" y1="1405.3250994539026" x2="43.128559447523315" y2="1405.470537600307" style="stroke:blue;stroke-width:1.0"/>
<line x1="43.128559447523315" y1="1405.470537600307" x2="44.38456721102874" y2="1405.5664946022239" style="stroke:blue;stroke-width:1.0"/>
<line x1="44.38456721102874" y1="1405.5664946022239" x2="45.005461478187286" y2="1404.560374363888" style="stroke:blue;stroke-width:1.0"/>
<line x1="45.005461478187286" y1="1404.560374363888" x2="47.220715417811235" y2="1398.6466924397475" style="stroke:blue;stroke-width:1.0"/>
<line x1="47.220715417811235" y1="1398.6466924397475" x2="46.89973759048555" y2="1396.5463509140584" style="stroke:blue;stroke-width:1.0"/>
<line x1="46.89973759048555" y1="1396.5463509140584" x2="46.69081697868452" y2="1391.9561514348343" style="stroke:blue;stroke-width:1.0"/>
<line x1="46.69081697868452" y1="1391.9561514348343" x2="47.30881873616646" y2="1382.4202607611746" style="stroke:blue;stroke-width:1.0"/>
<line x1="47.30881873616646" y1="1382.4202607611746" x2="48.910982234023585" y2="1372.9520744146257" style="stroke:blue;stroke-width:1.0"/>
<line x1="48.910982234023585" y1="1372.9520744146257" x2="53.811946114712214" y2="1359.598024112461" style="stroke:blue;stroke-width:1.0"/>
<line x1="53.811946114712214" y1="1359.598024112461" x2="57.79758037676751" y2="1345.443296634615" style="stroke:blue;stroke-width:1.0"/>
<line x1="57.79758037676751" y1="1345.443296634615" x2="63.64687987792658" y2="1328.376621846646" style="stroke:blue;stroke-width:1.0"/>
<line x1="63.64687987792658" y1="1328.376621846646" x2="76.156208741406" y2="1297.4111414857166" style="stroke:blue;stroke-width:1.0"/>
<line x1="76.156208741406" y1="1297.4111414857166" x2="87.2318235892478" y2="1266.3797257577432" style="stroke:blue;stroke-width:1.0"/>
<line x1="87.2318235892478" y1="1266.3797257577432" x2="91.8869954642171" y2="1248.793060534147" style="stroke:blue;stroke-width:1.0"/>
<line x1="91.8869954642171" y1="1248.793060534147" x2="95.57943055492083" y2="1233.193747229818" style="stroke:blue;stroke-width:1.0"/>
<line x1="95.57943055492083" y1="1233.193747229818" x2="99.02361098882437" y2="1218.366711861487" style="stroke:blue;stroke-width:1.0"/>
<line x1="99.02361098882437" y1="1218.366711861487" x2="103.54734982974038" y2="1184.2499711715075" style="stroke:blue;stroke-width:1.0"/>
<line x1="103.54734982974038" y1="1184.2499711715075" x2="104.47697509861003" y2="1172.415798705391" style="stroke:blue;stroke-width:1.0"/>
<line x1="104.47697509861003" y1="1172.415798705391" x2="106.32174356193838" y2="1134.7485285628914" style="stroke:blue;stroke-width:1.0"/>
<line x1="106.32174356193838" y1="1134.7485285628914" x2="105.28564708243601" y2="1101.3784503714178" style="stroke:blue;stroke-width:1.0"/>
<line x1="105.28564708243601" y1="1101.3784503714178" x2="105.16301508529205" y2="1100.2507017377168" style="stroke:blue;stroke-width:1.0"/>
<line x1="105.16301508529205" y1="1100.2507017377168" x2="101.68894764771346" y2="1096.732690407331" style="stroke:blue;stroke-width:1.0"/>
<line x1="101.68894764771346" y1="1096.732690407331" x2="98.54897460314454" y2="1094.0442251775667" style="stroke:blue;stroke-width:1.0"/>
<line x1="98.54897460314454" y1="1094.0442251775667" x2="95.31199328728553" y2="1090.9750504933943" style="stroke:blue;stroke-width:1.0"/>
<line x1="95.31199328728553" y1="1090.9750504933943" x2="92.88588379134558" y2="1088.7417268340073" style="stroke:blue;stroke-width:1.0"/>
<line x1="92.88588379134558" y1="1088.7417268340073" x2="92.2649207004917" y2="1086.6821206394616" style="stroke:blue;stroke-width:1.0"/>
<line x1="92.2649207004917" y1="1086.6821206394616" x2="92.27807516352996" y2="1085.7251077396838" style="stroke:blue;stroke-width:1.0"/>
<line x1="92.27807516352996" y1="1085.7251077396838" x2="92.61625942397313" y2="1051.3390167052019" style="stroke:blue;stroke-width:1.0"/>
<line x1="92.61625942397313" y1="1051.3390167052019" x2="92.66025948832016" y2="1046.8707394422038" style="stroke:blue;stroke-width:1.0"/>
<line x1="92.66025948832016" y1="1046.8707394422038" x2="93.32169172686815" y2="1040.8698013338167" style="stroke:blue;stroke-width:1.0"/>
<line x1="93.32169172686815" y1="1040.8698013338167" x2="96.33503542935352" y2="1013.5324969661194" style="stroke:blue;stroke-width:1.0"/>
<line x1="96.33503542935352" y1="1013.5324969661194" x2="105.22093311010447" y2="964.7803546803443" style="stroke:blue;stroke-width:1.0"/>
<line x1="105.22093311010447" y1="964.7803546803443" x2="119.32676671182023" y2="911.9895672974951" style="stroke:blue;stroke-width:1.0"/>
<line x1="119.32676671182023" y1="911.9895672974951" x2="128.36409179223068" y2="884.5064814636696" style="stroke:blue;stroke-width:1.0"/>
<line x1="128.36409179223068" y1="884.5064814636696" x2="139.5099393757996" y2="848.6913044545792" style="stroke:blue;stroke-width:1.0"/>
<line x1="139.5099393757996" y1="848.6913044545792" x2="146.49278787060393" y2="819.0588919795669" style="stroke:blue;stroke-width:1.0"/>
<line x1="146.49278787060393" y1="819.0588919795669" x2="151.96933655816883" y2="786.8181971725503" style="stroke:blue;stroke-width:1.0"/>
<line x1="151.96933655816883" y1="786.8181971725503" x2="157.9758828135639" y2="753.6991524363684" style="stroke:blue;stroke-width:1.0"/>
<line x1="157.9758828135639" y1="753.6991524363684" x2="159.26781090047436" y2="745.0216569009385" style="stroke:blue;stroke-width:1.0"/>
<line x1="159.26781090047436" y1="745.0216569009385" x2="159.39700654089785" y2="744.3648920314724" style="stroke:blue;stroke-width:1.0"/>
<line x1="57.89044848342814" y1="1403.2283896530996" x2="79.29020713393703" y2="1407.2439099916314" style="stroke:green;stroke-width:1.0"/>
<line x1="167.61716473994815" y1="741.0" x2="189.01692339045707" y2="745.0155203385318" style="stroke:green;stroke-width:1.0"/>
<line x1="129.72671625652" y1="741.0" x2="151.12647490702892" y2="745.0155203385318" style="stroke:green;stroke-width:1.0"/>
<line x1="20.0" y1="1403.2283896530996" x2="41.399758650508886" y2="1407.2439099916314" style="stroke:green;stroke-width:1.0"/>
<line x1="57.89044848342814" y1="1403.2283896530996" x2="167.61716473994815" y2="741.0" style="stroke:yellow;stroke-width:1.0"/>
<line x1="79.29020713393703" y1="1407.2439099916314" x2="189.01692339045707" y2="745.0155203385318" style="stroke:yellow;stroke-width:1.0"/>
<line x1="20.0" y1="1403.2283896530996" x2="129.72671625652" y2="741.0" style="stroke:yellow;stroke-width:1.0"/>
<line x1="41.399758650508886" y1="1407.2439099916314" x2="151.12647490702892" y2="745.0155203385318" style="stroke:yellow;stroke-width:1.0"/>
<line x1="57.89044848342814" y1="1403.2283896530996" x2="20.0" y2="1403.2283896530996" style="stroke:red;stroke-width:1.0"/>
<line x1="79.29020713393703" y1="1407.2439099916314" x2="41.399758650508886" y2="1407.2439099916314" style="stroke:red;stroke-width:1.0"/>
<line x1="167.61716473994815" y1="741.0" x2="129.72671625652" y2="741.0" style="stroke:red;stroke-width:1.0"/>
<line x1="189.01692339045707" y1="745.0155203385318" x2="151.12647490702892" y2="745.0155203385318" style="stroke:red;stroke-width:1.0"/>
<!--
Rot z: 0.0, rot y: 90.0 of: Rot z: 90.0, rot y: 0.0 of: Rot z: 0.0, rot y: 90.0 of: Cell: SMBVR
[ 300, 0, 140, 160 ]
-->
<rect x="300.0" y="0.0" width="140.0" height="160.0" style="fill:none;stroke:black;stroke-width:1;"/>
<line x1="389.09284" y1="32.986019999999996" x2="389.09284" y2="32.986019" style="stroke:red;stroke-width:3.0"/>
<line x1="389.09284" y1="32.986019999999996" x2="389.09290000000004" y2="32.986019999999996" style="stroke:blue;stroke-width:1.0"/>
<line x1="389.09290000000004" y1="32.986019999999996" x2="388.84743000000003" y2="33.30867" style="stroke:blue;stroke-width:1.0"/>
<line x1="388.84743000000003" y1="33.30867" x2="388.22192" y2="33.397819999999996" style="stroke:blue;stroke-width:1.0"/>
<line x1="388.22192" y1="33.397819999999996" x2="387.74143000000004" y2="33.06754" style="stroke:blue;stroke-width:1.0"/>
<line x1="387.74143000000004" y1="33.06754" x2="387.90676" y2="31.09773" style="stroke:blue;stroke-width:1.0"/>
<line x1="387.90676" y1="31.09773" x2="388.19061" y2="29.012549999999997" style="stroke:blue;stroke-width:1.0"/>
<line x1="388.19061" y1="29.012549999999997" x2="388.96915" y2="28.268720000000002" style="stroke:blue;stroke-width:1.0"/>
<line x1="388.96915" y1="28.268720000000002" x2="391.55975" y2="26.207659999999997" style="stroke:blue;stroke-width:1.0"/>
<line x1="391.55975" y1="26.207659999999997" x2="393.12858" y2="23.580309999999997" style="stroke:blue;stroke-width:1.0"/>
<line x1="393.12858" y1="23.580309999999997" x2="393.62731" y2="20.562399999999997" style="stroke:blue;stroke-width:1.0"/>
<line x1="393.62731" y1="20.562399999999997" x2="393.61531" y2="20.22614" style="stroke:blue;stroke-width:1.0"/>
<line x1="393.61531" y1="20.22614" x2="393.23261" y2="20.0" style="stroke:blue;stroke-width:1.0"/>
<line x1="393.23261" y1="20.0" x2="392.88466" y2="20.156579999999998" style="stroke:blue;stroke-width:1.0"/>
<line x1="392.88466" y1="20.156579999999998" x2="392.51924" y2="20.52185" style="stroke:blue;stroke-width:1.0"/>
<line x1="392.51924" y1="20.52185" x2="392.09323" y2="23.189210000000003" style="stroke:blue;stroke-width:1.0"/>
<line x1="392.09323" y1="23.189210000000003" x2="390.52445" y2="25.816560000000003" style="stroke:blue;stroke-width:1.0"/>
<line x1="390.52445" y1="25.816560000000003" x2="388.25519" y2="27.54459" style="stroke:blue;stroke-width:1.0"/>
<line x1="388.25519" y1="27.54459" x2="387.41302" y2="28.91386" style="stroke:blue;stroke-width:1.0"/>
<line x1="387.41302" y1="28.91386" x2="387.37554" y2="30.13725" style="stroke:blue;stroke-width:1.0"/>
<line x1="387.37554" y1="30.13725" x2="387.37554" y2="33.74931" style="stroke:blue;stroke-width:1.0"/>
<line x1="387.37554" y1="33.74931" x2="388.24984" y2="34.23249" style="stroke:blue;stroke-width:1.0"/>
<line x1="388.24984" y1="34.23249" x2="391.10403" y2="39.360699999999994" style="stroke:blue;stroke-width:1.0"/>
<line x1="391.10403" y1="39.360699999999994" x2="394.13038" y2="44.99101" style="stroke:blue;stroke-width:1.0"/>
<line x1="394.13038" y1="44.99101" x2="396.05044000000004" y2="50.44522" style="stroke:blue;stroke-width:1.0"/>
<line x1="396.05044000000004" y1="50.44522" x2="396.56782" y2="59.748670000000004" style="stroke:blue;stroke-width:1.0"/>
<line x1="396.56782" y1="59.748670000000004" x2="398.0226" y2="68.6032" style="stroke:blue;stroke-width:1.0"/>
<line x1="398.0226" y1="68.6032" x2="398.98607" y2="80.12532999999999" style="stroke:blue;stroke-width:1.0"/>
<line x1="398.98607" y1="80.12532999999999" x2="398.95013" y2="101.59852999999998" style="stroke:blue;stroke-width:1.0"/>
<line x1="398.95013" y1="101.59852999999998" x2="398.65083" y2="118.11314999999999" style="stroke:blue;stroke-width:1.0"/>
<line x1="398.65083" y1="118.11314999999999" x2="398.91544" y2="123.94225" style="stroke:blue;stroke-width:1.0"/>
<line x1="398.91544" y1="123.94225" x2="398.95904" y2="127.30268999999998" style="stroke:blue;stroke-width:1.0"/>
<line x1="398.95904" y1="127.30268999999998" x2="398.74731" y2="129.59908" style="stroke:blue;stroke-width:1.0"/>
<line x1="398.74731" y1="129.59908" x2="399.99707" y2="129.78426" style="stroke:blue;stroke-width:1.0"/>
<line x1="399.99707" y1="129.78426" x2="399.8037" y2="126.22970999999998" style="stroke:blue;stroke-width:1.0"/>
<line x1="399.8037" y1="126.22970999999998" x2="400.04353" y2="114.04446999999999" style="stroke:blue;stroke-width:1.0"/>
<line x1="400.04353" y1="114.04446999999999" x2="400.55046" y2="96.26310999999998" style="stroke:blue;stroke-width:1.0"/>
<line x1="400.55046" y1="96.26310999999998" x2="400.65632" y2="95.65354999999998" style="stroke:blue;stroke-width:1.0"/>
<line x1="400.65632" y1="95.65354999999998" x2="403.42959" y2="91.52877999999998" style="stroke:blue;stroke-width:1.0"/>
<line x1="403.42959" y1="91.52877999999998" x2="405.8523" y2="87.80469999999998" style="stroke:blue;stroke-width:1.0"/>
<line x1="405.8523" y1="87.80469999999998" x2="408.0691" y2="83.03808999999998" style="stroke:blue;stroke-width:1.0"/>
<line x1="408.0691" y1="83.03808999999998" x2="409.5" y2="78.85468999999998" style="stroke:blue;stroke-width:1.0"/>
<line x1="409.5" y1="78.85468999999998" x2="408.9585" y2="74.53061999999998" style="stroke:blue;stroke-width:1.0"/>
<line x1="408.9585" y1="74.53061999999998" x2="408.90188" y2="73.94748999999999" style="stroke:blue;stroke-width:1.0"/>
<line x1="408.90188" y1="73.94748999999999" x2="407.38936" y2="54.05805999999998" style="stroke:blue;stroke-width:1.0"/>
<line x1="407.38936" y1="54.05805999999998" x2="407.19277999999997" y2="51.47359999999998" style="stroke:blue;stroke-width:1.0"/>
<line x1="407.19277999999997" y1="51.47359999999998" x2="407.18939" y2="50.490859999999984" style="stroke:blue;stroke-width:1.0"/>
<line x1="407.18939" y1="50.490859999999984" x2="407.17383" y2="46.014199999999974" style="stroke:blue;stroke-width:1.0"/>
<line x1="407.17383" y1="46.014199999999974" x2="407.23311" y2="48.54201999999998" style="stroke:blue;stroke-width:1.0"/>
<line x1="407.23311" y1="48.54201999999998" x2="407.51315999999997" y2="64.99128999999996" style="stroke:blue;stroke-width:1.0"/>
<line x1="407.51315999999997" y1="64.99128999999996" x2="405.67627" y2="72.97568999999997" style="stroke:blue;stroke-width:1.0"/>
<line x1="405.67627" y1="72.97568999999997" x2="402.35621" y2="78.95063999999996" style="stroke:blue;stroke-width:1.0"/>
<line x1="402.35621" y1="78.95063999999996" x2="401.08090999999996" y2="81.45365999999996" style="stroke:blue;stroke-width:1.0"/>
<line x1="401.08090999999996" y1="81.45365999999996" x2="399.82692999999995" y2="78.34843999999997" style="stroke:blue;stroke-width:1.0"/>
<line x1="399.82692999999995" y1="78.34843999999997" x2="395.21486999999996" y2="66.99872999999997" style="stroke:blue;stroke-width:1.0"/>
<line x1="395.21486999999996" y1="66.99872999999997" x2="393.66729" y2="62.25468999999996" style="stroke:blue;stroke-width:1.0"/>
<line x1="393.66729" y1="62.25468999999996" x2="393.45799999999997" y2="61.730369999999965" style="stroke:blue;stroke-width:1.0"/>
<line x1="420.0" y1="140.28426" x2="320.0" y2="140.28426" style="stroke:green;stroke-width:3.0"/>
<circle cx="420.0" cy="140.28426" r="1.5" stroke-width="0" fill="yellow"/>
<line x1="420.0" y1="140.28426" x2="420.0" y2="40.28426" style="stroke:red;stroke-width:3.0"/>
</svg>
