<?xml version='1.0' encoding='UTF-8'?>
<svg xmlns="http://www.w3.org/2000/svg" version="1.1" width="90" height="325" viewBox="0 0 90 325">
<!--
Rot z: 0.0, rot y: 90.0 of: Cell: IL1DR
[ 0, 0, 63, 118 ]
-->
<rect x="0.0" y="0.0" width="63.0" height="118.0" style="fill:none;stroke:black;stroke-width:1;"/>
<text x="25.0" y="93.0" fill="black" font-size="8px">
10.0 μm</text>
<line x1="34.609069999999996" y1="30.06033000000002" x2="34.60907099999999" y2="30.06033000000002" style="stroke:red;stroke-width:2.0"/>
<line x1="34.609069999999996" y1="30.06033000000002" x2="34.6059" y2="29.023619999999994" style="stroke:blue;stroke-width:1.0"/>
<line x1="34.6059" y1="29.023619999999994" x2="32.72733" y2="26.357500000000016" style="stroke:blue;stroke-width:1.0"/>
<line x1="32.72733" y1="26.357500000000016" x2="32.97232" y2="25.13959" style="stroke:blue;stroke-width:1.0"/>
<line x1="32.97232" y1="25.13959" x2="33.04099999999999" y2="22.916350000000023" style="stroke:blue;stroke-width:1.0"/>
<line x1="33.04099999999999" y1="22.916350000000023" x2="33.017410000000005" y2="20.554759999999987" style="stroke:blue;stroke-width:1.0"/>
<line x1="33.017410000000005" y1="20.554759999999987" x2="32.755109999999995" y2="20.0" style="stroke:blue;stroke-width:1.0"/>
<line x1="32.755109999999995" y1="20.0" x2="32.51494" y2="20.114840000000015" style="stroke:blue;stroke-width:1.0"/>
<line x1="32.51494" y1="20.114840000000015" x2="32.396679999999996" y2="20.739250000000027" style="stroke:blue;stroke-width:1.0"/>
<line x1="32.396679999999996" y1="20.739250000000027" x2="32.42754" y2="21.43232999999998" style="stroke:blue;stroke-width:1.0"/>
<line x1="32.42754" y1="21.43232999999998" x2="32.488369999999996" y2="22.31470999999999" style="stroke:blue;stroke-width:1.0"/>
<line x1="34.609069999999996" y1="30.06033000000002" x2="34.61225000000001" y2="31.097030000000018" style="stroke:grey;stroke-width:1.0"/>
<line x1="34.61225000000001" y1="31.097030000000018" x2="39.698969999999996" y2="35.617189999999994" style="stroke:grey;stroke-width:1.0"/>
<line x1="39.698969999999996" y1="35.617189999999994" x2="41.503319999999995" y2="38.60701999999998" style="stroke:grey;stroke-width:1.0"/>
<line x1="41.503319999999995" y1="38.60701999999998" x2="41.80628000000001" y2="42.60088999999999" style="stroke:grey;stroke-width:1.0"/>
<line x1="41.80628000000001" y1="42.60088999999999" x2="42.0524" y2="45.49180000000001" style="stroke:grey;stroke-width:1.0"/>
<line x1="42.0524" y1="45.49180000000001" x2="41.00794" y2="51.71872000000002" style="stroke:grey;stroke-width:1.0"/>
<line x1="41.00794" y1="51.71872000000002" x2="41.71197" y2="59.98187999999999" style="stroke:grey;stroke-width:1.0"/>
<line x1="41.71197" y1="59.98187999999999" x2="42.435979999999994" y2="67.79944999999998" style="stroke:grey;stroke-width:1.0"/>
<line x1="42.435979999999994" y1="67.79944999999998" x2="42.81919" y2="78.65370000000001" style="stroke:grey;stroke-width:1.0"/>
<line x1="42.81919" y1="78.65370000000001" x2="43.00402999999999" y2="83.95404000000002" style="stroke:grey;stroke-width:1.0"/>
<line x1="43.00402999999999" y1="83.95404000000002" x2="42.643719999999995" y2="88.35205000000002" style="stroke:grey;stroke-width:1.0"/>
<line x1="32.488369999999996" y1="22.31470999999999" x2="32.55505" y2="22.48022000000003" style="stroke:grey;stroke-width:1.0"/>
<line x1="32.55505" y1="22.48022000000003" x2="30.499999999999993" y2="22.24536999999998" style="stroke:grey;stroke-width:1.0"/>
<circle cx="20.0" cy="98.85205000000002" r="0.5" stroke-width="0" fill="green"/>
<line x1="20.0" y1="98.85205000000002" x2="20.0" y2="88.85205000000002" style="stroke:yellow;stroke-width:1.0"/>
<line x1="20.0" y1="98.85205000000002" x2="29.999999999999993" y2="98.85205000000002" style="stroke:red;stroke-width:1.0"/>
<!--
Rot z: 0.0, rot y: 0.0 of: Cell: IL1DR
[ 0, 118, 55, 118 ]
-->
<rect x="0.0" y="118.0" width="55.0" height="118.0" style="fill:none;stroke:black;stroke-width:1;"/>
<circle cx="32.64793" cy="148.06033000000002" r="1.0" stroke-width="0" fill="red"/>
<line x1="32.64793" y1="148.06033000000002" x2="32.55751" y2="147.02362" style="stroke:blue;stroke-width:1.0"/>
<line x1="32.55751" y1="147.02362" x2="31.591210000000004" y2="144.35750000000002" style="stroke:blue;stroke-width:1.0"/>
<line x1="31.591210000000004" y1="144.35750000000002" x2="30.872840000000004" y2="143.13959" style="stroke:blue;stroke-width:1.0"/>
<line x1="30.872840000000004" y1="143.13959" x2="30.567620000000005" y2="140.91635000000002" style="stroke:blue;stroke-width:1.0"/>
<line x1="30.567620000000005" y1="140.91635000000002" x2="30.5" y2="138.55476" style="stroke:blue;stroke-width:1.0"/>
<line x1="30.5" y1="138.55476" x2="31.166590000000003" y2="138.0" style="stroke:blue;stroke-width:1.0"/>
<line x1="31.166590000000003" y1="138.0" x2="31.811310000000002" y2="138.11484000000002" style="stroke:blue;stroke-width:1.0"/>
<line x1="31.811310000000002" y1="138.11484000000002" x2="32.160090000000004" y2="138.73925000000003" style="stroke:blue;stroke-width:1.0"/>
<line x1="32.160090000000004" y1="138.73925000000003" x2="32.1163" y2="139.43232999999998" style="stroke:blue;stroke-width:1.0"/>
<line x1="32.1163" y1="139.43232999999998" x2="32.075610000000005" y2="140.31471" style="stroke:blue;stroke-width:1.0"/>
<line x1="32.64793" y1="148.06033000000002" x2="32.738350000000004" y2="149.09703000000002" style="stroke:grey;stroke-width:1.0"/>
<line x1="32.738350000000004" y1="149.09703000000002" x2="32.27187000000001" y2="153.61719" style="stroke:grey;stroke-width:1.0"/>
<line x1="32.27187000000001" y1="153.61719" x2="31.11455" y2="156.60701999999998" style="stroke:grey;stroke-width:1.0"/>
<line x1="31.11455" y1="156.60701999999998" x2="31.20989" y2="160.60089" style="stroke:grey;stroke-width:1.0"/>
<line x1="31.20989" y1="160.60089" x2="31.212830000000004" y2="163.4918" style="stroke:grey;stroke-width:1.0"/>
<line x1="31.212830000000004" y1="163.4918" x2="32.956810000000004" y2="169.71872000000002" style="stroke:grey;stroke-width:1.0"/>
<line x1="32.956810000000004" y1="169.71872000000002" x2="33.454280000000004" y2="177.98188" style="stroke:grey;stroke-width:1.0"/>
<line x1="33.454280000000004" y1="177.98188" x2="33.907970000000006" y2="185.79944999999998" style="stroke:grey;stroke-width:1.0"/>
<line x1="33.907970000000006" y1="185.79944999999998" x2="34.520160000000004" y2="196.65370000000001" style="stroke:grey;stroke-width:1.0"/>
<line x1="34.520160000000004" y1="196.65370000000001" x2="34.88713" y2="201.95404000000002" style="stroke:grey;stroke-width:1.0"/>
<line x1="34.88713" y1="201.95404000000002" x2="35.68224000000001" y2="206.35205000000002" style="stroke:grey;stroke-width:1.0"/>
<line x1="32.075610000000005" y1="140.31471" x2="31.996260000000003" y2="140.48022000000003" style="stroke:grey;stroke-width:1.0"/>
<line x1="31.996260000000003" y1="140.48022000000003" x2="31.426470000000002" y2="140.24536999999998" style="stroke:grey;stroke-width:1.0"/>
<line x1="20.0" y1="216.85205000000002" x2="30.0" y2="216.85205000000002" style="stroke:green;stroke-width:1.0"/>
<line x1="20.0" y1="216.85205000000002" x2="20.0" y2="206.85205000000002" style="stroke:yellow;stroke-width:1.0"/>
<circle cx="20.0" cy="216.85205000000002" r="0.5" stroke-width="0" fill="red"/>
<!--
Rot z: -10.0, rot y: -20.0 of: Cell: IL1DR
[ 0, 236, 61, 109 ]
-->
<rect x="0.0" y="236.0" width="61.0" height="109.0" style="fill:none;stroke:black;stroke-width:1;"/>
<line x1="35.086086294562136" y1="266.8597030774571" x2="35.08608595254199" y2="266.8597030774571" style="stroke:red;stroke-width:2.0"/>
<line x1="35.086086294562136" y1="266.8597030774571" x2="35.17266043026318" y2="265.8230417636071" style="stroke:blue;stroke-width:1.0"/>
<line x1="35.17266043026318" y1="265.8230417636071" x2="35.3559857314835" y2="263.0296298830666" style="stroke:blue;stroke-width:1.0"/>
<line x1="35.3559857314835" y1="263.0296298830666" x2="34.80613628311497" y2="261.70547903120496" style="stroke:blue;stroke-width:1.0"/>
<line x1="34.80613628311497" y1="261.70547903120496" x2="34.862969904354514" y2="259.4630141456106" style="stroke:blue;stroke-width:1.0"/>
<line x1="34.862969904354514" y1="259.4630141456106" x2="35.193816090556055" y2="257.1255599144007" style="stroke:blue;stroke-width:1.0"/>
<line x1="35.193816090556055" y1="257.1255599144007" x2="35.99092487962366" y2="256.69498010409063" style="stroke:blue;stroke-width:1.0"/>
<line x1="35.99092487962366" y1="256.69498010409063" x2="36.65096331223279" y2="256.920029879552" style="stroke:blue;stroke-width:1.0"/>
<line x1="36.65096331223279" y1="256.920029879552" x2="36.912288737904746" y2="257.5955187000169" style="stroke:blue;stroke-width:1.0"/>
<line x1="36.912288737904746" y1="257.5955187000169" x2="36.748116043802355" y2="258.2704652037745" style="stroke:blue;stroke-width:1.0"/>
<line x1="36.748116043802355" y1="258.2704652037745" x2="36.54567259741371" y2="259.13237412452827" style="stroke:blue;stroke-width:1.0"/>
<line x1="35.086086294562136" y1="266.8597030774571" x2="34.999510370418804" y2="267.89635454322945" style="stroke:grey;stroke-width:1.0"/>
<line x1="34.999510370418804" y1="267.89635454322945" x2="32.09048011485149" y2="272.266839754167" style="stroke:grey;stroke-width:1.0"/>
<line x1="32.09048011485149" y1="272.266839754167" x2="29.914484720246833" y2="275.010281009378" style="stroke:grey;stroke-width:1.0"/>
<line x1="29.914484720246833" y1="275.010281009378" x2="29.24739213787869" y2="278.96003076715965" style="stroke:grey;stroke-width:1.0"/>
<line x1="29.24739213787869" y1="278.96003076715965" x2="28.694207991593416" y2="281.80753187406253" style="stroke:grey;stroke-width:1.0"/>
<line x1="28.694207991593416" y1="281.80753187406253" x2="29.649259010125334" y2="288.2426899163369" style="stroke:grey;stroke-width:1.0"/>
<line x1="29.649259010125334" y1="288.2426899163369" x2="28.520484891760717" y2="296.4666987076612" style="stroke:grey;stroke-width:1.0"/>
<line x1="28.520484891760717" y1="296.4666987076612" x2="27.417072027386865" y2="304.24428469510246" style="stroke:grey;stroke-width:1.0"/>
<line x1="27.417072027386865" y1="304.24428469510246" x2="26.081385129613352" y2="315.0399399261213" style="stroke:grey;stroke-width:1.0"/>
<line x1="26.081385129613352" y1="315.0399399261213" x2="25.49287843910342" y2="320.3234795234804" style="stroke:grey;stroke-width:1.0"/>
<line x1="25.49287843910342" y1="320.3234795234804" x2="25.63427040352586" y2="324.7927432718503" style="stroke:grey;stroke-width:1.0"/>
<line x1="36.54567259741371" y1="259.13237412452827" x2="36.42242764370366" y2="259.2815906728315" style="stroke:grey;stroke-width:1.0"/>
<line x1="36.42242764370366" y1="259.2815906728315" x2="36.63632488977697" y2="258.95136557688363" style="stroke:grey;stroke-width:1.0"/>
<line x1="24.618650276074135" y1="324.2984365272904" x2="30.33979766371138" y2="325.37197123719" style="stroke:green;stroke-width:0.5"/>
<line x1="35.93523422609121" y1="256.0" x2="41.656381613728456" y2="257.0735347098996" style="stroke:green;stroke-width:0.5"/>
<line x1="31.316583950017076" y1="256.0" x2="37.037731337654336" y2="257.0735347098996" style="stroke:green;stroke-width:0.5"/>
<line x1="20.0" y1="324.2984365272904" x2="25.721147387637245" y2="325.37197123719" style="stroke:green;stroke-width:0.5"/>
<line x1="24.618650276074135" y1="324.2984365272904" x2="35.93523422609121" y2="256.0" style="stroke:yellow;stroke-width:0.5"/>
<line x1="30.33979766371138" y1="325.37197123719" x2="41.656381613728456" y2="257.0735347098996" style="stroke:yellow;stroke-width:0.5"/>
<line x1="20.0" y1="324.2984365272904" x2="31.316583950017076" y2="256.0" style="stroke:yellow;stroke-width:0.5"/>
<line x1="25.721147387637245" y1="325.37197123719" x2="37.037731337654336" y2="257.0735347098996" style="stroke:yellow;stroke-width:0.5"/>
<line x1="24.618650276074135" y1="324.2984365272904" x2="20.0" y2="324.2984365272904" style="stroke:red;stroke-width:0.5"/>
<line x1="30.33979766371138" y1="325.37197123719" x2="25.721147387637245" y2="325.37197123719" style="stroke:red;stroke-width:0.5"/>
<line x1="35.93523422609121" y1="256.0" x2="31.316583950017076" y2="256.0" style="stroke:red;stroke-width:0.5"/>
<line x1="41.656381613728456" y1="257.0735347098996" x2="37.037731337654336" y2="257.0735347098996" style="stroke:red;stroke-width:0.5"/>
<!--
Rot z: 0.0, rot y: 90.0 of: Rot z: 90.0, rot y: 0.0 of: Rot z: 0.0, rot y: 90.0 of: Cell: IL1DR
[ 55, 118, 55, 63 ]
-->
<rect x="55.0" y="118.0" width="55.0" height="63.0" style="fill:none;stroke:black;stroke-width:1;"/>
<line x1="78.03430999999999" y1="146.39495999999997" x2="78.03430999999999" y2="146.39495899999997" style="stroke:red;stroke-width:2.0"/>
<line x1="78.03430999999999" y1="146.39495999999997" x2="78.12473" y2="146.39812999999998" style="stroke:blue;stroke-width:1.0"/>
<line x1="78.12473" y1="146.39812999999998" x2="79.09103" y2="148.2767" style="stroke:blue;stroke-width:1.0"/>
<line x1="79.09103" y1="148.2767" x2="79.8094" y2="148.03170999999998" style="stroke:blue;stroke-width:1.0"/>
<line x1="79.8094" y1="148.03170999999998" x2="80.11462" y2="147.96303" style="stroke:blue;stroke-width:1.0"/>
<line x1="80.11462" y1="147.96303" x2="80.18224" y2="147.98662000000002" style="stroke:blue;stroke-width:1.0"/>
<line x1="80.18224" y1="147.98662000000002" x2="79.51565" y2="148.24892" style="stroke:blue;stroke-width:1.0"/>
<line x1="79.51565" y1="148.24892" x2="78.87093" y2="148.48908999999998" style="stroke:blue;stroke-width:1.0"/>
<line x1="78.87093" y1="148.48908999999998" x2="78.52215" y2="148.60735" style="stroke:blue;stroke-width:1.0"/>
<line x1="78.52215" y1="148.60735" x2="78.56594" y2="148.57648999999998" style="stroke:blue;stroke-width:1.0"/>
<line x1="78.56594" y1="148.57648999999998" x2="78.60663" y2="148.51565999999997" style="stroke:blue;stroke-width:1.0"/>
<line x1="78.03430999999999" y1="146.39495999999997" x2="77.94389" y2="146.39177999999998" style="stroke:grey;stroke-width:1.0"/>
<line x1="77.94389" y1="146.39177999999998" x2="78.41037" y2="141.30505999999997" style="stroke:grey;stroke-width:1.0"/>
<line x1="78.41037" y1="141.30505999999997" x2="79.56769" y2="139.50071" style="stroke:grey;stroke-width:1.0"/>
<line x1="79.56769" y1="139.50071" x2="79.47234999999999" y2="139.19774999999998" style="stroke:grey;stroke-width:1.0"/>
<line x1="79.47234999999999" y1="139.19774999999998" x2="79.46941" y2="138.95163000000002" style="stroke:grey;stroke-width:1.0"/>
<line x1="79.46941" y1="138.95163000000002" x2="77.72543" y2="139.99608999999998" style="stroke:grey;stroke-width:1.0"/>
<line x1="77.72543" y1="139.99608999999998" x2="77.22796" y2="139.29206" style="stroke:grey;stroke-width:1.0"/>
<line x1="77.22796" y1="139.29206" x2="76.77427" y2="138.56805" style="stroke:grey;stroke-width:1.0"/>
<line x1="76.77427" y1="138.56805" x2="76.16208" y2="138.18484" style="stroke:grey;stroke-width:1.0"/>
<line x1="76.16208" y1="138.18484" x2="75.79511" y2="138.0" style="stroke:grey;stroke-width:1.0"/>
<line x1="75.79511" y1="138.0" x2="75.0" y2="138.36031" style="stroke:grey;stroke-width:1.0"/>
<line x1="78.60663" y1="148.51565999999997" x2="78.68598" y2="148.44898" style="stroke:grey;stroke-width:1.0"/>
<line x1="78.68598" y1="148.44898" x2="79.25577" y2="150.50403" style="stroke:grey;stroke-width:1.0"/>
<line x1="90.68224000000001" y1="161.00403" x2="80.68224000000001" y2="161.00403" style="stroke:green;stroke-width:1.0"/>
<circle cx="90.68224000000001" cy="161.00403" r="0.5" stroke-width="0" fill="yellow"/>
<line x1="90.68224000000001" y1="161.00403" x2="90.68224000000001" y2="151.00403" style="stroke:red;stroke-width:1.0"/>
</svg>
