<?xml version='1.0' encoding='UTF-8'?>
<svg xmlns="http://www.w3.org/2000/svg" version="1.1" width="130" height="155" viewBox="0 0 130 155">
<!--
Rot z: 0.0, rot y: 90.0 of: Rot z: 90.0, rot y: 0.0 of: Rot z: 0.0, rot y: 90.0 of: Cell: ADAL
[ 0, 0, 61, 89 ]
-->
<rect x="0.0" y="0.0" width="61.0" height="89.0" style="fill:none;stroke:black;stroke-width:1;"/>
<text x="25.0" y="64.0" fill="black" font-size="8px">
10.0 μm</text>
<line x1="20.0" y1="42.3562" x2="20.0" y2="42.356199000000004" style="stroke:red;stroke-width:3.0"/>
<line x1="20.0" y1="42.3562" x2="20.0" y2="42.38312" style="stroke:blue;stroke-width:1.0"/>
<line x1="20.0" y1="42.38312" x2="20.0" y2="43.025819999999996" style="stroke:blue;stroke-width:1.0"/>
<line x1="20.0" y1="43.025819999999996" x2="23.48167" y2="55.31295" style="stroke:blue;stroke-width:1.0"/>
<line x1="23.48167" y1="55.31295" x2="25.301180000000002" y2="56.48611" style="stroke:blue;stroke-width:1.0"/>
<line x1="25.301180000000002" y1="56.48611" x2="28.14461" y2="58.42561" style="stroke:blue;stroke-width:1.0"/>
<line x1="28.14461" y1="58.42561" x2="28.914209999999997" y2="58.91889" style="stroke:blue;stroke-width:1.0"/>
<line x1="28.914209999999997" y1="58.91889" x2="28.844879999999996" y2="57.19294" style="stroke:blue;stroke-width:1.0"/>
<line x1="28.844879999999996" y1="57.19294" x2="29.53416" y2="51.366389999999996" style="stroke:blue;stroke-width:1.0"/>
<line x1="29.53416" y1="51.366389999999996" x2="29.99866" y2="47.28584000000001" style="stroke:blue;stroke-width:1.0"/>
<line x1="29.99866" y1="47.28584000000001" x2="29.964100000000002" y2="42.94107" style="stroke:blue;stroke-width:1.0"/>
<line x1="29.964100000000002" y1="42.94107" x2="29.90782" y2="36.910669999999996" style="stroke:blue;stroke-width:1.0"/>
<line x1="29.90782" y1="36.910669999999996" x2="28.032890000000002" y2="35.31892" style="stroke:blue;stroke-width:1.0"/>
<line x1="28.032890000000002" y1="35.31892" x2="25.730290000000004" y2="33.56604" style="stroke:blue;stroke-width:1.0"/>
<line x1="25.730290000000004" y1="33.56604" x2="24.161430000000003" y2="30.938650000000003" style="stroke:blue;stroke-width:1.0"/>
<line x1="24.161430000000003" y1="30.938650000000003" x2="23.64842" y2="27.923389999999998" style="stroke:blue;stroke-width:1.0"/>
<line x1="23.64842" y1="27.923389999999998" x2="24.194560000000003" y2="24.886089999999996" style="stroke:blue;stroke-width:1.0"/>
<line x1="24.194560000000003" y1="24.886089999999996" x2="25.729260000000004" y2="22.308790000000002" style="stroke:blue;stroke-width:1.0"/>
<line x1="25.729260000000004" y1="22.308790000000002" x2="28.036500000000004" y2="20.591609999999996" style="stroke:blue;stroke-width:1.0"/>
<line x1="28.036500000000004" y1="20.591609999999996" x2="30.741220000000006" y2="20.0" style="stroke:blue;stroke-width:1.0"/>
<line x1="41.241220000000006" y1="69.41889" x2="31.24122" y2="69.41889" style="stroke:green;stroke-width:1.0"/>
<circle cx="41.241220000000006" cy="69.41889" r="0.5" stroke-width="0" fill="yellow"/>
<line x1="41.241220000000006" y1="69.41889" x2="41.241220000000006" y2="59.418890000000005" style="stroke:red;stroke-width:1.0"/>
<!--
Rot z: 0.0, rot y: 90.0 of: Cell: ADAL
[ 61, 0, 89, 86 ]
-->
<rect x="61.0" y="0.0" width="89.0" height="86.0" style="fill:none;stroke:black;stroke-width:1;"/>
<line x1="108.06269" y1="20.13022000000001" x2="108.062691" y2="20.13022000000001" style="stroke:red;stroke-width:3.0"/>
<line x1="108.06269" y1="20.13022000000001" x2="108.03577" y2="20.115340000000003" style="stroke:blue;stroke-width:1.0"/>
<line x1="108.03577" y1="20.115340000000003" x2="107.39307" y2="20.0" style="stroke:blue;stroke-width:1.0"/>
<line x1="107.39307" y1="20.0" x2="95.10594" y2="22.195159999999987" style="stroke:blue;stroke-width:1.0"/>
<line x1="95.10594" y1="22.195159999999987" x2="93.93278" y2="22.712999999999965" style="stroke:blue;stroke-width:1.0"/>
<line x1="93.93278" y1="22.712999999999965" x2="91.99328" y2="23.548310000000015" style="stroke:blue;stroke-width:1.0"/>
<line x1="91.99328" y1="23.548310000000015" x2="91.5" y2="24.702660000000037" style="stroke:blue;stroke-width:1.0"/>
<line x1="91.5" y1="24.702660000000037" x2="93.22595" y2="26.840120000000013" style="stroke:blue;stroke-width:1.0"/>
<line x1="93.22595" y1="26.840120000000013" x2="99.0525" y2="40.890150000000006" style="stroke:blue;stroke-width:1.0"/>
<line x1="99.0525" y1="40.890150000000006" x2="103.13305" y2="48.50864999999999" style="stroke:blue;stroke-width:1.0"/>
<line x1="103.13305" y1="48.50864999999999" x2="107.47782" y2="52.02962000000002" style="stroke:blue;stroke-width:1.0"/>
<line x1="107.47782" y1="52.02962000000002" x2="113.50822" y2="53.81368000000003" style="stroke:blue;stroke-width:1.0"/>
<line x1="113.50822" y1="53.81368000000003" x2="115.09997" y2="54.02505000000002" style="stroke:blue;stroke-width:1.0"/>
<line x1="115.09997" y1="54.02505000000002" x2="116.85284999999999" y2="54.26963999999998" style="stroke:blue;stroke-width:1.0"/>
<line x1="116.85284999999999" y1="54.26963999999998" x2="119.48024" y2="54.64546999999999" style="stroke:blue;stroke-width:1.0"/>
<line x1="119.48024" y1="54.64546999999999" x2="122.49549999999999" y2="55.06708000000003" style="stroke:blue;stroke-width:1.0"/>
<line x1="122.49549999999999" y1="55.06708000000003" x2="125.53280000000001" y2="55.52253999999999" style="stroke:blue;stroke-width:1.0"/>
<line x1="125.53280000000001" y1="55.52253999999999" x2="128.1101" y2="55.86016000000001" style="stroke:blue;stroke-width:1.0"/>
<line x1="128.1101" y1="55.86016000000001" x2="129.82728" y2="56.162379999999985" style="stroke:blue;stroke-width:1.0"/>
<line x1="129.82728" y1="56.162379999999985" x2="130.41889" y2="56.23095000000001" style="stroke:blue;stroke-width:1.0"/>
<circle cx="81.0" cy="66.73095" r="0.5" stroke-width="0" fill="green"/>
<line x1="81.0" y1="66.73095" x2="81.0" y2="56.73095000000001" style="stroke:yellow;stroke-width:1.0"/>
<line x1="81.0" y1="66.73095" x2="91.0" y2="66.73095" style="stroke:red;stroke-width:1.0"/>
<!--
Rot z: 0.0, rot y: 0.0 of: Cell: ADAL
[ 0, 89, 61, 86 ]
-->
<rect x="0.0" y="89.0" width="61.0" height="86.0" style="fill:none;stroke:black;stroke-width:1;"/>
<circle cx="41.24122" cy="109.13022000000001" r="1.5" stroke-width="0" fill="red"/>
<line x1="41.24122" y1="109.13022000000001" x2="41.24122" y2="109.11534" style="stroke:blue;stroke-width:1.0"/>
<line x1="41.24122" y1="109.11534" x2="41.24122" y2="109.0" style="stroke:blue;stroke-width:1.0"/>
<line x1="41.24122" y1="109.0" x2="37.75955" y2="111.19515999999999" style="stroke:blue;stroke-width:1.0"/>
<line x1="37.75955" y1="111.19515999999999" x2="35.940039999999996" y2="111.71299999999997" style="stroke:blue;stroke-width:1.0"/>
<line x1="35.940039999999996" y1="111.71299999999997" x2="33.09661" y2="112.54831000000001" style="stroke:blue;stroke-width:1.0"/>
<line x1="33.09661" y1="112.54831000000001" x2="32.32701" y2="113.70266000000004" style="stroke:blue;stroke-width:1.0"/>
<line x1="32.32701" y1="113.70266000000004" x2="32.396339999999995" y2="115.84012000000001" style="stroke:blue;stroke-width:1.0"/>
<line x1="32.396339999999995" y1="115.84012000000001" x2="31.70706" y2="129.89015" style="stroke:blue;stroke-width:1.0"/>
<line x1="31.70706" y1="129.89015" x2="31.242559999999997" y2="137.50865" style="stroke:blue;stroke-width:1.0"/>
<line x1="31.242559999999997" y1="137.50865" x2="31.27712" y2="141.02962000000002" style="stroke:blue;stroke-width:1.0"/>
<line x1="31.27712" y1="141.02962000000002" x2="31.333399999999997" y2="142.81368000000003" style="stroke:blue;stroke-width:1.0"/>
<line x1="31.333399999999997" y1="142.81368000000003" x2="33.208330000000004" y2="143.02505000000002" style="stroke:blue;stroke-width:1.0"/>
<line x1="33.208330000000004" y1="143.02505000000002" x2="35.51093" y2="143.26963999999998" style="stroke:blue;stroke-width:1.0"/>
<line x1="35.51093" y1="143.26963999999998" x2="37.07979" y2="143.64547" style="stroke:blue;stroke-width:1.0"/>
<line x1="37.07979" y1="143.64547" x2="37.5928" y2="144.06708000000003" style="stroke:blue;stroke-width:1.0"/>
<line x1="37.5928" y1="144.06708000000003" x2="37.04666" y2="144.52254" style="stroke:blue;stroke-width:1.0"/>
<line x1="37.04666" y1="144.52254" x2="35.51196" y2="144.86016" style="stroke:blue;stroke-width:1.0"/>
<line x1="35.51196" y1="144.86016" x2="33.204719999999995" y2="145.16237999999998" style="stroke:blue;stroke-width:1.0"/>
<line x1="33.204719999999995" y1="145.16237999999998" x2="30.5" y2="145.23095" style="stroke:blue;stroke-width:1.0"/>
<line x1="20.0" y1="155.73095" x2="30.0" y2="155.73095" style="stroke:green;stroke-width:1.0"/>
<line x1="20.0" y1="155.73095" x2="20.0" y2="145.73095" style="stroke:yellow;stroke-width:1.0"/>
<circle cx="20.0" cy="155.73095" r="0.5" stroke-width="0" fill="red"/>
<!--
Rot z: -10.0, rot y: -20.0 of: Cell: ADAL
[ 61, 86, 71, 79 ]
-->
<rect x="61.0" y="86.0" width="71.0" height="79.0" style="fill:none;stroke:black;stroke-width:1;"/>
<line x1="105.19244961641328" y1="109.4292289972714" x2="105.19244927439314" y2="109.4292289972714" style="stroke:red;stroke-width:3.0"/>
<line x1="105.19244961641328" y1="109.4292289972714" x2="105.20408485622977" y2="109.41457505790655" style="stroke:blue;stroke-width:1.0"/>
<line x1="105.20408485622977" y1="109.41457505790655" x2="105.44272191193912" y2="109.30098733167412" style="stroke:blue;stroke-width:1.0"/>
<line x1="105.44272191193912" y1="109.30098733167412" x2="106.06497550393183" y2="110.85821226803878" style="stroke:blue;stroke-width:1.0"/>
<line x1="106.06497550393183" y1="110.85821226803878" x2="104.69791612287577" y2="111.05223051911187" style="stroke:blue;stroke-width:1.0"/>
<line x1="104.69791612287577" y1="111.05223051911187" x2="102.59360445898422" y2="111.38109384545706" style="stroke:blue;stroke-width:1.0"/>
<line x1="102.59360445898422" y1="111.38109384545706" x2="101.86175344349347" y2="112.3842670376142" style="stroke:blue;stroke-width:1.0"/>
<line x1="101.86175344349347" y1="112.3842670376142" x2="100.98682092541887" y2="114.50129324552532" style="stroke:blue;stroke-width:1.0"/>
<line x1="100.98682092541887" y1="114.50129324552532" x2="96.06352587299915" y2="128.21817950367713" style="stroke:blue;stroke-width:1.0"/>
<line x1="96.06352587299915" y1="128.21817950367713" x2="92.99488389726334" y2="135.6402777914744" style="stroke:blue;stroke-width:1.0"/>
<line x1="92.99488389726334" y1="135.6402777914744" x2="90.96632994815567" y2="139.11375762661797" style="stroke:blue;stroke-width:1.0"/>
<line x1="90.96632994815567" y1="139.11375762661797" x2="88.66477850480103" y2="140.88048666589603" style="stroke:blue;stroke-width:1.0"/>
<line x1="88.66477850480103" y1="140.88048666589603" x2="89.82096875465551" y2="141.4142236584033" style="stroke:blue;stroke-width:1.0"/>
<line x1="89.82096875465551" y1="141.4142236584033" x2="91.31240150313059" y2="142.05494008060836" style="stroke:blue;stroke-width:1.0"/>
<line x1="91.31240150313059" y1="142.05494008060836" x2="91.80430384925043" y2="142.69749005843752" style="stroke:blue;stroke-width:1.0"/>
<line x1="91.80430384925043" y1="142.69749005843752" x2="91.17897555486346" y2="143.20177810680994" style="stroke:blue;stroke-width:1.0"/>
<line x1="91.17897555486346" y1="143.20177810680994" x2="89.56043066291404" y2="143.5554824302458" style="stroke:blue;stroke-width:1.0"/>
<line x1="89.56043066291404" y1="143.5554824302458" x2="87.20361387352484" y2="143.62147536555236" style="stroke:blue;stroke-width:1.0"/>
<line x1="87.20361387352484" y1="143.62147536555236" x2="84.43183055359238" y2="143.51845594322745" style="stroke:blue;stroke-width:1.0"/>
<line x1="84.43183055359238" y1="143.51845594322745" x2="81.71530631644526" y2="143.11631451175217" style="stroke:blue;stroke-width:1.0"/>
<line x1="94.6530644792016" y1="143.52189429942482" x2="106.44400069622189" y2="145.7343839336783" style="stroke:green;stroke-width:0.5"/>
<line x1="100.87018581306174" y1="106.00000000000003" x2="112.66112203008203" y2="108.21248963425344" style="stroke:green;stroke-width:0.5"/>
<line x1="87.21712133386012" y1="106.00000000000003" x2="99.00805755088041" y2="108.21248963425344" style="stroke:green;stroke-width:0.5"/>
<line x1="81.0" y1="143.52189429942482" x2="92.79093621702029" y2="145.7343839336783" style="stroke:green;stroke-width:0.5"/>
<line x1="94.6530644792016" y1="143.52189429942482" x2="100.87018581306174" y2="106.00000000000003" style="stroke:yellow;stroke-width:0.5"/>
<line x1="106.44400069622189" y1="145.7343839336783" x2="112.66112203008203" y2="108.21248963425344" style="stroke:yellow;stroke-width:0.5"/>
<line x1="81.0" y1="143.52189429942482" x2="87.21712133386012" y2="106.00000000000003" style="stroke:yellow;stroke-width:0.5"/>
<line x1="92.79093621702029" y1="145.7343839336783" x2="99.00805755088041" y2="108.21248963425344" style="stroke:yellow;stroke-width:0.5"/>
<line x1="94.6530644792016" y1="143.52189429942482" x2="81.0" y2="143.52189429942482" style="stroke:red;stroke-width:0.5"/>
<line x1="106.44400069622189" y1="145.7343839336783" x2="92.79093621702029" y2="145.7343839336783" style="stroke:red;stroke-width:0.5"/>
<line x1="100.87018581306174" y1="106.00000000000003" x2="87.21712133386012" y2="106.00000000000003" style="stroke:red;stroke-width:0.5"/>
<line x1="112.66112203008203" y1="108.21248963425344" x2="99.00805755088041" y2="108.21248963425344" style="stroke:red;stroke-width:0.5"/>
</svg>
