<?xml version='1.0' encoding='UTF-8'?>
<svg xmlns="http://www.w3.org/2000/svg" version="1.1" width="430" height="1423" viewBox="0 0 430 1423">
<!--
Rot z: 0.0, rot y: 90.0 of: Cell: PVCR
[ 0, 0, 170, 730 ]
-->
<rect x="0.0" y="0.0" width="170.0" height="730.0" style="fill:none;stroke:black;stroke-width:1;"/>
<text x="25.0" y="705.0" fill="black" font-size="20px">
100.0 μm</text>
<line x1="103.08853" y1="20.0" x2="103.088531" y2="20.0" style="stroke:red;stroke-width:3.0"/>
<line x1="103.08853" y1="20.0" x2="103.02187" y2="20.00976000000003" style="stroke:blue;stroke-width:1.0"/>
<line x1="103.02187" y1="20.00976000000003" x2="102.20453" y2="20.302790000000016" style="stroke:blue;stroke-width:1.0"/>
<line x1="102.20453" y1="20.302790000000016" x2="99.12885" y2="22.12829000000005" style="stroke:blue;stroke-width:1.0"/>
<line x1="99.12885" y1="22.12829000000005" x2="97.1414" y2="24.787170000000003" style="stroke:blue;stroke-width:1.0"/>
<line x1="97.1414" y1="24.787170000000003" x2="95.56241" y2="28.111790000000042" style="stroke:blue;stroke-width:1.0"/>
<line x1="95.56241" y1="28.111790000000042" x2="93.98321" y2="31.436620000000005" style="stroke:blue;stroke-width:1.0"/>
<line x1="93.98321" y1="31.436620000000005" x2="92.64442" y2="34.25502" style="stroke:blue;stroke-width:1.0"/>
<line x1="92.64442" y1="34.25502" x2="91.74864" y2="36.66375000000005" style="stroke:blue;stroke-width:1.0"/>
<line x1="91.74864" y1="36.66375000000005" x2="90.14567" y2="40.06722000000002" style="stroke:blue;stroke-width:1.0"/>
<line x1="90.14567" y1="40.06722000000002" x2="86.10451" y2="46.052760000000035" style="stroke:blue;stroke-width:1.0"/>
<line x1="86.10451" y1="46.052760000000035" x2="81.14236" y2="56.84640000000002" style="stroke:blue;stroke-width:1.0"/>
<line x1="81.14236" y1="56.84640000000002" x2="76.12901" y2="68.81667000000004" style="stroke:blue;stroke-width:1.0"/>
<line x1="76.12901" y1="68.81667000000004" x2="74.57644" y2="73.43537000000003" style="stroke:blue;stroke-width:1.0"/>
<line x1="74.57644" y1="73.43537000000003" x2="71.53876" y2="101.39228000000003" style="stroke:blue;stroke-width:1.0"/>
<line x1="71.53876" y1="101.39228000000003" x2="71.06567000000001" y2="106.53122000000002" style="stroke:blue;stroke-width:1.0"/>
<line x1="71.06567000000001" y1="106.53122000000002" x2="72.08338" y2="135.00632000000002" style="stroke:blue;stroke-width:1.0"/>
<line x1="72.08338" y1="135.00632000000002" x2="72.54997" y2="140.87033000000002" style="stroke:blue;stroke-width:1.0"/>
<line x1="72.54997" y1="140.87033000000002" x2="76.0583" y2="167.91885000000002" style="stroke:blue;stroke-width:1.0"/>
<line x1="76.0583" y1="167.91885000000002" x2="77.32393" y2="175.03021" style="stroke:blue;stroke-width:1.0"/>
<line x1="77.32393" y1="175.03021" x2="98.65597" y2="249.48711000000003" style="stroke:blue;stroke-width:1.0"/>
<line x1="98.65597" y1="249.48711000000003" x2="99.8391" y2="256.60009" style="stroke:blue;stroke-width:1.0"/>
<line x1="99.8391" y1="256.60009" x2="102.04196" y2="299.1077" style="stroke:blue;stroke-width:1.0"/>
<line x1="102.04196" y1="299.1077" x2="102.02896" y2="307.94030000000004" style="stroke:blue;stroke-width:1.0"/>
<line x1="102.02896" y1="307.94030000000004" x2="97.08186" y2="334.85592" style="stroke:blue;stroke-width:1.0"/>
<line x1="97.08186" y1="334.85592" x2="95.57237" y2="339.42382000000003" style="stroke:blue;stroke-width:1.0"/>
<line x1="95.57237" y1="339.42382000000003" x2="91.2154" y2="346.37119" style="stroke:blue;stroke-width:1.0"/>
<line x1="91.2154" y1="346.37119" x2="85.74115" y2="354.67400000000004" style="stroke:blue;stroke-width:1.0"/>
<line x1="85.74115" y1="354.67400000000004" x2="86.82390000000001" y2="358.65827" style="stroke:blue;stroke-width:1.0"/>
<line x1="86.82390000000001" y1="358.65827" x2="84.90999000000001" y2="362.35985000000005" style="stroke:blue;stroke-width:1.0"/>
<line x1="84.90999000000001" y1="362.35985000000005" x2="83.13877000000001" y2="367.9481" style="stroke:blue;stroke-width:1.0"/>
<line x1="83.13877000000001" y1="367.9481" x2="77.70577" y2="376.57038" style="stroke:blue;stroke-width:1.0"/>
<line x1="77.70577" y1="376.57038" x2="73.14579" y2="382.10416000000004" style="stroke:blue;stroke-width:1.0"/>
<line x1="73.14579" y1="382.10416000000004" x2="67.03101000000001" y2="388.05556" style="stroke:blue;stroke-width:1.0"/>
<line x1="67.03101000000001" y1="388.05556" x2="62.2351" y2="391.97399" style="stroke:blue;stroke-width:1.0"/>
<line x1="62.2351" y1="391.97399" x2="47.48443" y2="420.38853" style="stroke:blue;stroke-width:1.0"/>
<line x1="47.48443" y1="420.38853" x2="44.33661" y2="427.62426000000005" style="stroke:blue;stroke-width:1.0"/>
<line x1="44.33661" y1="427.62426000000005" x2="31.70020000000001" y2="471.32637" style="stroke:blue;stroke-width:1.0"/>
<line x1="31.70020000000001" y1="471.32637" x2="30.5" y2="477.49928" style="stroke:blue;stroke-width:1.0"/>
<line x1="30.5" y1="477.49928" x2="30.89383000000001" y2="508.32234000000005" style="stroke:blue;stroke-width:1.0"/>
<line x1="30.89383000000001" y1="508.32234000000005" x2="33.55556" y2="526.52892" style="stroke:blue;stroke-width:1.0"/>
<line x1="33.55556" y1="526.52892" x2="37.36547" y2="542.66471" style="stroke:blue;stroke-width:1.0"/>
<line x1="37.36547" y1="542.66471" x2="43.596900000000005" y2="559.6341" style="stroke:blue;stroke-width:1.0"/>
<line x1="43.596900000000005" y1="559.6341" x2="57.493660000000006" y2="587.00167" style="stroke:blue;stroke-width:1.0"/>
<line x1="57.493660000000006" y1="587.00167" x2="59.96802" y2="591.7927" style="stroke:blue;stroke-width:1.0"/>
<line x1="59.96802" y1="591.7927" x2="89.16047" y2="634.36819" style="stroke:blue;stroke-width:1.0"/>
<line x1="89.16047" y1="634.36819" x2="92.32577" y2="639.14093" style="stroke:blue;stroke-width:1.0"/>
<line x1="92.32577" y1="639.14093" x2="112.14914" y2="667.5184899999999" style="stroke:blue;stroke-width:1.0"/>
<line x1="112.14914" y1="667.5184899999999" x2="120.86306" y2="681.83387" style="stroke:blue;stroke-width:1.0"/>
<line x1="120.86306" y1="681.83387" x2="126.85388" y2="690.85871" style="stroke:blue;stroke-width:1.0"/>
<line x1="126.85388" y1="690.85871" x2="129.96594" y2="694.20407" style="stroke:blue;stroke-width:1.0"/>
<line x1="129.96594" y1="694.20407" x2="132.98208" y2="696.26224" style="stroke:blue;stroke-width:1.0"/>
<line x1="132.98208" y1="696.26224" x2="135.6493" y2="697.3271" style="stroke:blue;stroke-width:1.0"/>
<line x1="135.6493" y1="697.3271" x2="137.40732" y2="697.58214" style="stroke:blue;stroke-width:1.0"/>
<line x1="137.40732" y1="697.58214" x2="140.0345" y2="697.95788" style="stroke:blue;stroke-width:1.0"/>
<line x1="140.0345" y1="697.95788" x2="143.04983" y2="698.37976" style="stroke:blue;stroke-width:1.0"/>
<line x1="143.04983" y1="698.37976" x2="146.08731" y2="698.8351600000001" style="stroke:blue;stroke-width:1.0"/>
<line x1="146.08731" y1="698.8351600000001" x2="148.6645" y2="699.17291" style="stroke:blue;stroke-width:1.0"/>
<line x1="148.6645" y1="699.17291" x2="150.38168000000002" y2="699.4751" style="stroke:blue;stroke-width:1.0"/>
<line x1="150.38168000000002" y1="699.4751" x2="150.97325" y2="699.54398" style="stroke:blue;stroke-width:1.0"/>
<circle cx="20.0" cy="710.04398" r="1.5" stroke-width="0" fill="green"/>
<line x1="20.0" y1="710.04398" x2="20.0" y2="610.04398" style="stroke:yellow;stroke-width:3.0"/>
<line x1="20.0" y1="710.04398" x2="120.0" y2="710.04398" style="stroke:red;stroke-width:3.0"/>
<!--
Rot z: 0.0, rot y: 0.0 of: Cell: PVCR
[ 170, 0, 140, 730 ]
-->
<rect x="170.0" y="0.0" width="140.0" height="730.0" style="fill:none;stroke:black;stroke-width:1;"/>
<circle cx="210.52203" cy="20.0" r="1.5" stroke-width="0" fill="red"/>
<line x1="210.52203" y1="20.0" x2="210.52244000000002" y2="20.00976000000003" style="stroke:blue;stroke-width:1.0"/>
<line x1="210.52244000000002" y1="20.00976000000003" x2="210.02496000000002" y2="20.302790000000016" style="stroke:blue;stroke-width:1.0"/>
<line x1="210.02496000000002" y1="20.302790000000016" x2="208.40452000000002" y2="22.12829000000005" style="stroke:blue;stroke-width:1.0"/>
<line x1="208.40452000000002" y1="22.12829000000005" x2="206.97062" y2="24.787170000000003" style="stroke:blue;stroke-width:1.0"/>
<line x1="206.97062" y1="24.787170000000003" x2="206.61133" y2="28.111790000000042" style="stroke:blue;stroke-width:1.0"/>
<line x1="206.61133" y1="28.111790000000042" x2="207.06186" y2="31.436620000000005" style="stroke:blue;stroke-width:1.0"/>
<line x1="207.06186" y1="31.436620000000005" x2="208.34599" y2="34.25502" style="stroke:blue;stroke-width:1.0"/>
<line x1="208.34599" y1="34.25502" x2="210.43729000000002" y2="36.66375000000005" style="stroke:blue;stroke-width:1.0"/>
<line x1="210.43729000000002" y1="36.66375000000005" x2="211.59177" y2="40.06722000000002" style="stroke:blue;stroke-width:1.0"/>
<line x1="211.59177" y1="40.06722000000002" x2="212.46152" y2="46.052760000000035" style="stroke:blue;stroke-width:1.0"/>
<line x1="212.46152" y1="46.052760000000035" x2="212.46152" y2="56.84640000000002" style="stroke:blue;stroke-width:1.0"/>
<line x1="212.46152" y1="56.84640000000002" x2="212.46152" y2="68.81667000000004" style="stroke:blue;stroke-width:1.0"/>
<line x1="212.46152" y1="68.81667000000004" x2="212.46152" y2="73.43537000000003" style="stroke:blue;stroke-width:1.0"/>
<line x1="212.46152" y1="73.43537000000003" x2="212.46152" y2="101.39228000000003" style="stroke:blue;stroke-width:1.0"/>
<line x1="212.46152" y1="101.39228000000003" x2="212.46152" y2="106.53122000000002" style="stroke:blue;stroke-width:1.0"/>
<line x1="212.46152" y1="106.53122000000002" x2="212.46152" y2="135.00632000000002" style="stroke:blue;stroke-width:1.0"/>
<line x1="212.46152" y1="135.00632000000002" x2="212.46152" y2="140.87033000000002" style="stroke:blue;stroke-width:1.0"/>
<line x1="212.46152" y1="140.87033000000002" x2="212.46152" y2="167.91885000000002" style="stroke:blue;stroke-width:1.0"/>
<line x1="212.46152" y1="167.91885000000002" x2="212.46152" y2="175.03021" style="stroke:blue;stroke-width:1.0"/>
<line x1="212.46152" y1="175.03021" x2="212.46152" y2="249.48711000000003" style="stroke:blue;stroke-width:1.0"/>
<line x1="212.46152" y1="249.48711000000003" x2="212.46152" y2="256.60009" style="stroke:blue;stroke-width:1.0"/>
<line x1="212.46152" y1="256.60009" x2="212.46152" y2="299.1077" style="stroke:blue;stroke-width:1.0"/>
<line x1="212.46152" y1="299.1077" x2="212.46152" y2="307.94030000000004" style="stroke:blue;stroke-width:1.0"/>
<line x1="212.46152" y1="307.94030000000004" x2="212.46152" y2="334.85592" style="stroke:blue;stroke-width:1.0"/>
<line x1="212.46152" y1="334.85592" x2="212.46152" y2="339.42382000000003" style="stroke:blue;stroke-width:1.0"/>
<line x1="212.46152" y1="339.42382000000003" x2="212.05001000000001" y2="346.37119" style="stroke:blue;stroke-width:1.0"/>
<line x1="212.05001000000001" y1="346.37119" x2="211.71369" y2="354.67400000000004" style="stroke:blue;stroke-width:1.0"/>
<line x1="211.71369" y1="354.67400000000004" x2="208.08222" y2="358.65827" style="stroke:blue;stroke-width:1.0"/>
<line x1="208.08222" y1="358.65827" x2="203.54683" y2="362.35985000000005" style="stroke:blue;stroke-width:1.0"/>
<line x1="203.54683" y1="362.35985000000005" x2="200.5" y2="367.9481" style="stroke:blue;stroke-width:1.0"/>
<line x1="200.5" y1="367.9481" x2="200.61523" y2="376.57038" style="stroke:blue;stroke-width:1.0"/>
<line x1="200.61523" y1="376.57038" x2="203.32065" y2="382.10416000000004" style="stroke:blue;stroke-width:1.0"/>
<line x1="203.32065" y1="382.10416000000004" x2="209.58073000000002" y2="388.05556" style="stroke:blue;stroke-width:1.0"/>
<line x1="209.58073000000002" y1="388.05556" x2="212.46152" y2="391.97399" style="stroke:blue;stroke-width:1.0"/>
<line x1="212.46152" y1="391.97399" x2="212.46152" y2="420.38853" style="stroke:blue;stroke-width:1.0"/>
<line x1="212.46152" y1="420.38853" x2="212.46152" y2="427.62426000000005" style="stroke:blue;stroke-width:1.0"/>
<line x1="212.46152" y1="427.62426000000005" x2="212.46152" y2="471.32637" style="stroke:blue;stroke-width:1.0"/>
<line x1="212.46152" y1="471.32637" x2="212.46152" y2="477.49928" style="stroke:blue;stroke-width:1.0"/>
<line x1="212.46152" y1="477.49928" x2="212.46152" y2="508.32234000000005" style="stroke:blue;stroke-width:1.0"/>
<line x1="212.46152" y1="508.32234000000005" x2="212.46152" y2="526.52892" style="stroke:blue;stroke-width:1.0"/>
<line x1="212.46152" y1="526.52892" x2="212.46152" y2="542.66471" style="stroke:blue;stroke-width:1.0"/>
<line x1="212.46152" y1="542.66471" x2="212.46152" y2="559.6341" style="stroke:blue;stroke-width:1.0"/>
<line x1="212.46152" y1="559.6341" x2="212.46152" y2="587.00167" style="stroke:blue;stroke-width:1.0"/>
<line x1="212.46152" y1="587.00167" x2="212.46152" y2="591.7927" style="stroke:blue;stroke-width:1.0"/>
<line x1="212.46152" y1="591.7927" x2="212.46152" y2="634.36819" style="stroke:blue;stroke-width:1.0"/>
<line x1="212.46152" y1="634.36819" x2="212.46152" y2="639.14093" style="stroke:blue;stroke-width:1.0"/>
<line x1="212.46152" y1="639.14093" x2="212.46152" y2="667.5184899999999" style="stroke:blue;stroke-width:1.0"/>
<line x1="212.46152" y1="667.5184899999999" x2="212.46152" y2="681.83387" style="stroke:blue;stroke-width:1.0"/>
<line x1="212.46152" y1="681.83387" x2="212.46152" y2="690.85871" style="stroke:blue;stroke-width:1.0"/>
<line x1="212.46152" y1="690.85871" x2="211.60558" y2="694.20407" style="stroke:blue;stroke-width:1.0"/>
<line x1="211.60558" y1="694.20407" x2="209.99733" y2="696.26224" style="stroke:blue;stroke-width:1.0"/>
<line x1="209.99733" y1="696.26224" x2="208.94019" y2="697.3271" style="stroke:blue;stroke-width:1.0"/>
<line x1="208.94019" y1="697.3271" x2="206.60076" y2="697.58214" style="stroke:blue;stroke-width:1.0"/>
<line x1="206.60076" y1="697.58214" x2="205.03193000000002" y2="697.95788" style="stroke:blue;stroke-width:1.0"/>
<line x1="205.03193000000002" y1="697.95788" x2="204.51881" y2="698.37976" style="stroke:blue;stroke-width:1.0"/>
<line x1="204.51881" y1="698.37976" x2="205.06506000000002" y2="698.8351600000001" style="stroke:blue;stroke-width:1.0"/>
<line x1="205.06506000000002" y1="698.8351600000001" x2="206.59954000000002" y2="699.17291" style="stroke:blue;stroke-width:1.0"/>
<line x1="206.59954000000002" y1="699.17291" x2="208.90687" y2="699.4751" style="stroke:blue;stroke-width:1.0"/>
<line x1="208.90687" y1="699.4751" x2="211.61208000000002" y2="699.54398" style="stroke:blue;stroke-width:1.0"/>
<line x1="190.0" y1="710.04398" x2="290.0" y2="710.04398" style="stroke:green;stroke-width:3.0"/>
<line x1="190.0" y1="710.04398" x2="190.0" y2="610.04398" style="stroke:yellow;stroke-width:3.0"/>
<circle cx="190.0" cy="710.04398" r="1.5" stroke-width="0" fill="red"/>
<!--
Rot z: -10.0, rot y: -20.0 of: Cell: PVCR
[ 0, 730, 204, 713 ]
-->
<rect x="0.0" y="730.0" width="204.0" height="713.0" style="fill:none;stroke:black;stroke-width:1;"/>
<line x1="157.25260593939365" y1="753.3043429643751" x2="157.2526055973735" y2="753.3043429643751" style="stroke:red;stroke-width:3.0"/>
<line x1="157.25260593939365" y1="753.3043429643751" x2="157.2741918260519" y2="753.3140258837973" style="stroke:blue;stroke-width:1.0"/>
<line x1="157.2741918260519" y1="753.3140258837973" x2="157.04554689332696" y2="753.5162176042368" style="stroke:blue;stroke-width:1.0"/>
<line x1="157.04554689332696" y1="753.5162176042368" x2="156.30003174161658" y2="755.0325977043419" style="stroke:blue;stroke-width:1.0"/>
<line x1="156.30003174161658" y1="755.0325977043419" x2="155.21895967702133" y2="757.4020892207145" style="stroke:blue;stroke-width:1.0"/>
<line x1="155.21895967702133" y1="757.4020892207145" x2="154.8840152428959" y2="760.61381071878" style="stroke:blue;stroke-width:1.0"/>
<line x1="154.8840152428959" y1="760.61381071878" x2="155.2985292195778" y2="763.9663627937118" style="stroke:blue;stroke-width:1.0"/>
<line x1="155.2985292195778" y1="763.9663627937118" x2="156.48488257004763" y2="766.9649317991889" style="stroke:blue;stroke-width:1.0"/>
<line x1="156.48488257004763" y1="766.9649317991889" x2="158.33353435193612" y2="769.7002182120568" style="stroke:blue;stroke-width:1.0"/>
<line x1="158.33353435193612" y1="769.7002182120568" x2="159.3947929941342" y2="773.2524552033542" style="stroke:blue;stroke-width:1.0"/>
<line x1="159.3947929941342" y1="773.2524552033542" x2="160.60513624227437" y2="779.2980919038447" style="stroke:blue;stroke-width:1.0"/>
<line x1="160.60513624227437" y1="779.2980919038447" x2="160.5410294546743" y2="789.9277522590673" style="stroke:blue;stroke-width:1.0"/>
<line x1="160.5410294546743" y1="789.9277522590673" x2="160.3024364260566" y2="801.7161669607168" style="stroke:blue;stroke-width:1.0"/>
<line x1="160.3024364260566" y1="801.7161669607168" x2="160.07978605907485" y2="806.2646985295543" style="stroke:blue;stroke-width:1.0"/>
<line x1="160.07978605907485" y1="806.2646985295543" x2="156.55683954540154" y2="833.7968802478188" style="stroke:blue;stroke-width:1.0"/>
<line x1="156.55683954540154" y1="833.7968802478188" x2="155.88009463807734" y2="838.8577482020834" style="stroke:blue;stroke-width:1.0"/>
<line x1="155.88009463807734" y1="838.8577482020834" x2="150.8855669299552" y2="866.9002474498814" style="stroke:blue;stroke-width:1.0"/>
<line x1="150.8855669299552" y1="866.9002474498814" x2="149.7691185764412" y2="872.6751699616225" style="stroke:blue;stroke-width:1.0"/>
<line x1="149.7691185764412" y1="872.6751699616225" x2="144.1555321503012" y2="899.3127621651281" style="stroke:blue;stroke-width:1.0"/>
<line x1="144.1555321503012" y1="899.3127621651281" x2="142.56225854867068" y2="906.3160846275891" style="stroke:blue;stroke-width:1.0"/>
<line x1="142.56225854867068" y1="906.3160846275891" x2="123.11669867030622" y2="979.6418170128438" style="stroke:blue;stroke-width:1.0"/>
<line x1="123.11669867030622" y1="979.6418170128438" x2="121.55137738552399" y2="986.6467348638646" style="stroke:blue;stroke-width:1.0"/>
<line x1="121.55137738552399" y1="986.6467348638646" x2="113.86173689933591" y2="1028.5085587538838" style="stroke:blue;stroke-width:1.0"/>
<line x1="113.86173689933591" y1="1028.5085587538838" x2="112.4249156082296" y2="1037.2069717131394" style="stroke:blue;stroke-width:1.0"/>
<line x1="112.4249156082296" y1="1037.2069717131394" x2="109.7249426411638" y2="1063.7136829662697" style="stroke:blue;stroke-width:1.0"/>
<line x1="109.7249426411638" y1="1063.7136829662697" x2="109.49584738269486" y2="1068.2121863012544" style="stroke:blue;stroke-width:1.0"/>
<line x1="109.49584738269486" y1="1068.2121863012544" x2="109.47155728042276" y2="1074.982552178707" style="stroke:blue;stroke-width:1.0"/>
<line x1="109.47155728042276" y1="1074.982552178707" x2="109.67780635938375" y2="1083.1008224833813" style="stroke:blue;stroke-width:1.0"/>
<line x1="109.67780635938375" y1="1083.1008224833813" x2="105.29672461965824" y2="1086.3939643217232" style="stroke:blue;stroke-width:1.0"/>
<line x1="105.29672461965824" y1="1086.3939643217232" x2="101.15018660741288" y2="1089.2517467956093" style="stroke:blue;stroke-width:1.0"/>
<line x1="101.15018660741288" y1="1089.2517467956093" x2="98.02452474653641" y2="1094.226022244219" style="stroke:blue;stroke-width:1.0"/>
<line x1="98.02452474653641" y1="1094.226022244219" x2="98.58240754222062" y2="1102.7373199163735" style="stroke:blue;stroke-width:1.0"/>
<line x1="98.58240754222062" y1="1102.7373199163735" x2="101.74267348121805" y2="1108.656820616661" style="stroke:blue;stroke-width:1.0"/>
<line x1="101.74267348121805" y1="1108.656820616661" x2="108.65610810960624" y2="1115.604856961987" style="stroke:blue;stroke-width:1.0"/>
<line x1="108.65610810960624" y1="1115.604856961987" x2="112.32294337447507" y2="1119.964001139364" style="stroke:blue;stroke-width:1.0"/>
<line x1="112.32294337447507" y1="1119.964001139364" x2="112.73140118714676" y2="1147.9468604296394" style="stroke:blue;stroke-width:1.0"/>
<line x1="112.73140118714676" y1="1147.9468604296394" x2="112.62732219900514" y2="1155.0726634323423" style="stroke:blue;stroke-width:1.0"/>
<line x1="112.62732219900514" y1="1155.0726634323423" x2="109.81809733917692" y2="1198.1108401833349" style="stroke:blue;stroke-width:1.0"/>
<line x1="109.81809733917692" y1="1198.1108401833349" x2="109.22131970139736" y2="1204.1899698099814" style="stroke:blue;stroke-width:1.0"/>
<line x1="109.22131970139736" y1="1204.1899698099814" x2="104.05704100791064" y2="1234.5447582695417" style="stroke:blue;stroke-width:1.0"/>
<line x1="104.05704100791064" y1="1234.5447582695417" x2="100.17580045109001" y2="1252.4747394093788" style="stroke:blue;stroke-width:1.0"/>
<line x1="100.17580045109001" y1="1252.4747394093788" x2="96.23976225119024" y2="1268.3653905023557" style="stroke:blue;stroke-width:1.0"/>
<line x1="96.23976225119024" y1="1268.3653905023557" x2="91.33949199427609" y2="1285.0769773382435" style="stroke:blue;stroke-width:1.0"/>
<line x1="91.33949199427609" y1="1285.0769773382435" x2="82.12079197614975" y2="1312.0287724553477" style="stroke:blue;stroke-width:1.0"/>
<line x1="82.12079197614975" y1="1312.0287724553477" x2="80.49273032863424" y2="1316.7470159442619" style="stroke:blue;stroke-width:1.0"/>
<line x1="80.49273032863424" y1="1316.7470159442619" x2="63.561030021495135" y2="1358.6756885845557" style="stroke:blue;stroke-width:1.0"/>
<line x1="63.561030021495135" y1="1358.6756885845557" x2="61.69963746356542" y2="1363.375919939667" style="stroke:blue;stroke-width:1.0"/>
<line x1="61.69963746356542" y1="1363.375919939667" x2="50.28911140528466" y2="1391.3223610392363" style="stroke:blue;stroke-width:1.0"/>
<line x1="50.28911140528466" y1="1391.3223610392363" x2="44.97285006276105" y2="1405.420258250552" style="stroke:blue;stroke-width:1.0"/>
<line x1="44.97285006276105" y1="1405.420258250552" x2="41.45123245759058" y2="1414.3079906522469" style="stroke:blue;stroke-width:1.0"/>
<line x1="41.45123245759058" y1="1414.3079906522469" x2="39.048862018058166" y2="1417.4538946956714" style="stroke:blue;stroke-width:1.0"/>
<line x1="39.048862018058166" y1="1417.4538946956714" x2="36.193136405673144" y2="1419.2015267869558" style="stroke:blue;stroke-width:1.0"/>
<line x1="36.193136405673144" y1="1419.2015267869558" x2="34.128839056539256" y2="1420.0666387362896" style="stroke:blue;stroke-width:1.0"/>
<line x1="34.128839056539256" y1="1420.0666387362896" x2="31.320997113783562" y2="1419.9115663493385" style="stroke:blue;stroke-width:1.0"/>
<line x1="31.320997113783562" y1="1419.9115663493385" x2="28.909315626090873" y2="1420.0091735438862" style="stroke:blue;stroke-width:1.0"/>
<line x1="28.909315626090873" y1="1420.0091735438862" x2="27.33432161920601" y2="1420.3355418858023" style="stroke:blue;stroke-width:1.0"/>
<line x1="27.33432161920601" y1="1420.3355418858023" x2="26.726640770261994" y2="1420.8788786535747" style="stroke:blue;stroke-width:1.0"/>
<line x1="26.726640770261994" y1="1420.8788786535747" x2="27.210110444308683" y2="1421.477957127821" style="stroke:blue;stroke-width:1.0"/>
<line x1="27.210110444308683" y1="1421.477957127821" x2="28.7087315998331" y2="1422.1762198324798" style="stroke:blue;stroke-width:1.0"/>
<line x1="28.7087315998331" y1="1422.1762198324798" x2="30.9986093689337" y2="1422.7138081772137" style="stroke:blue;stroke-width:1.0"/>
<line x1="61.546298375234784" y1="1421.1897955227973" x2="73.54110386447623" y2="1423.4405398505908" style="stroke:green;stroke-width:1.0"/>
<line x1="172.75785831180139" y1="750.0" x2="184.75266380104281" y2="752.2507443277934" style="stroke:green;stroke-width:1.0"/>
<line x1="131.21155993656657" y1="750.0" x2="143.20636542580803" y2="752.2507443277934" style="stroke:green;stroke-width:1.0"/>
<line x1="20.0" y1="1421.1897955227973" x2="31.99480548924143" y2="1423.4405398505908" style="stroke:green;stroke-width:1.0"/>
<line x1="61.546298375234784" y1="1421.1897955227973" x2="172.75785831180139" y2="750.0" style="stroke:yellow;stroke-width:1.0"/>
<line x1="73.54110386447623" y1="1423.4405398505908" x2="184.75266380104281" y2="752.2507443277934" style="stroke:yellow;stroke-width:1.0"/>
<line x1="20.0" y1="1421.1897955227973" x2="131.21155993656657" y2="750.0" style="stroke:yellow;stroke-width:1.0"/>
<line x1="31.99480548924143" y1="1423.4405398505908" x2="143.20636542580803" y2="752.2507443277934" style="stroke:yellow;stroke-width:1.0"/>
<line x1="61.546298375234784" y1="1421.1897955227973" x2="20.0" y2="1421.1897955227973" style="stroke:red;stroke-width:1.0"/>
<line x1="73.54110386447623" y1="1423.4405398505908" x2="31.99480548924143" y2="1423.4405398505908" style="stroke:red;stroke-width:1.0"/>
<line x1="172.75785831180139" y1="750.0" x2="131.21155993656657" y2="750.0" style="stroke:red;stroke-width:1.0"/>
<line x1="184.75266380104281" y1="752.2507443277934" x2="143.20636542580803" y2="752.2507443277934" style="stroke:red;stroke-width:1.0"/>
<!--
Rot z: 0.0, rot y: 90.0 of: Rot z: 90.0, rot y: 0.0 of: Rot z: 0.0, rot y: 90.0 of: Cell: PVCR
[ 310, 0, 140, 170 ]
-->
<rect x="310.0" y="0.0" width="140.0" height="170.0" style="fill:none;stroke:black;stroke-width:1;"/>
<line x1="409.4779699999999" y1="67.88471999999996" x2="409.4779699999999" y2="67.88471899999996" style="stroke:red;stroke-width:3.0"/>
<line x1="409.4779699999999" y1="67.88471999999996" x2="409.4775599999999" y2="67.95137999999996" style="stroke:blue;stroke-width:1.0"/>
<line x1="409.4775599999999" y1="67.95137999999996" x2="409.9750399999999" y2="68.76871999999996" style="stroke:blue;stroke-width:1.0"/>
<line x1="409.9750399999999" y1="68.76871999999996" x2="411.59547999999995" y2="71.84439999999995" style="stroke:blue;stroke-width:1.0"/>
<line x1="411.59547999999995" y1="71.84439999999995" x2="413.02937999999995" y2="73.83184999999996" style="stroke:blue;stroke-width:1.0"/>
<line x1="413.02937999999995" y1="73.83184999999996" x2="413.38866999999993" y2="75.41083999999995" style="stroke:blue;stroke-width:1.0"/>
<line x1="413.38866999999993" y1="75.41083999999995" x2="412.9381399999999" y2="76.99003999999996" style="stroke:blue;stroke-width:1.0"/>
<line x1="412.9381399999999" y1="76.99003999999996" x2="411.6540099999999" y2="78.32882999999995" style="stroke:blue;stroke-width:1.0"/>
<line x1="411.6540099999999" y1="78.32882999999995" x2="409.5627099999999" y2="79.22460999999996" style="stroke:blue;stroke-width:1.0"/>
<line x1="409.5627099999999" y1="79.22460999999996" x2="408.40822999999995" y2="80.82757999999995" style="stroke:blue;stroke-width:1.0"/>
<line x1="408.40822999999995" y1="80.82757999999995" x2="407.53847999999994" y2="84.86873999999996" style="stroke:blue;stroke-width:1.0"/>
<line x1="407.53847999999994" y1="84.86873999999996" x2="407.53847999999994" y2="89.83088999999995" style="stroke:blue;stroke-width:1.0"/>
<line x1="407.53847999999994" y1="89.83088999999995" x2="407.53847999999994" y2="94.84423999999996" style="stroke:blue;stroke-width:1.0"/>
<line x1="407.53847999999994" y1="94.84423999999996" x2="407.53847999999994" y2="96.39680999999996" style="stroke:blue;stroke-width:1.0"/>
<line x1="407.53847999999994" y1="96.39680999999996" x2="407.53847999999994" y2="99.43448999999995" style="stroke:blue;stroke-width:1.0"/>
<line x1="407.53847999999994" y1="99.43448999999995" x2="407.53847999999994" y2="99.90757999999997" style="stroke:blue;stroke-width:1.0"/>
<line x1="407.53847999999994" y1="99.90757999999997" x2="407.53847999999994" y2="98.88986999999997" style="stroke:blue;stroke-width:1.0"/>
<line x1="407.53847999999994" y1="98.88986999999997" x2="407.53847999999994" y2="98.42327999999998" style="stroke:blue;stroke-width:1.0"/>
<line x1="407.53847999999994" y1="98.42327999999998" x2="407.53847999999994" y2="94.91494999999998" style="stroke:blue;stroke-width:1.0"/>
<line x1="407.53847999999994" y1="94.91494999999998" x2="407.53847999999994" y2="93.64931999999996" style="stroke:blue;stroke-width:1.0"/>
<line x1="407.53847999999994" y1="93.64931999999996" x2="407.53847999999994" y2="72.31727999999997" style="stroke:blue;stroke-width:1.0"/>
<line x1="407.53847999999994" y1="72.31727999999997" x2="407.53847999999994" y2="71.13414999999998" style="stroke:blue;stroke-width:1.0"/>
<line x1="407.53847999999994" y1="71.13414999999998" x2="407.53847999999994" y2="68.93128999999998" style="stroke:blue;stroke-width:1.0"/>
<line x1="407.53847999999994" y1="68.93128999999998" x2="407.53847999999994" y2="68.94428999999998" style="stroke:blue;stroke-width:1.0"/>
<line x1="407.53847999999994" y1="68.94428999999998" x2="407.53847999999994" y2="73.89138999999997" style="stroke:blue;stroke-width:1.0"/>
<line x1="407.53847999999994" y1="73.89138999999997" x2="407.53847999999994" y2="75.40087999999997" style="stroke:blue;stroke-width:1.0"/>
<line x1="407.53847999999994" y1="75.40087999999997" x2="407.94998999999996" y2="79.75784999999998" style="stroke:blue;stroke-width:1.0"/>
<line x1="407.94998999999996" y1="79.75784999999998" x2="408.28630999999996" y2="85.23209999999997" style="stroke:blue;stroke-width:1.0"/>
<line x1="408.28630999999996" y1="85.23209999999997" x2="411.91777999999994" y2="84.14934999999998" style="stroke:blue;stroke-width:1.0"/>
<line x1="411.91777999999994" y1="84.14934999999998" x2="416.45316999999994" y2="86.06325999999999" style="stroke:blue;stroke-width:1.0"/>
<line x1="416.45316999999994" y1="86.06325999999999" x2="419.49999999999994" y2="87.83447999999999" style="stroke:blue;stroke-width:1.0"/>
<line x1="419.49999999999994" y1="87.83447999999999" x2="419.38476999999995" y2="93.26747999999998" style="stroke:blue;stroke-width:1.0"/>
<line x1="419.38476999999995" y1="93.26747999999998" x2="416.67934999999994" y2="97.82745999999997" style="stroke:blue;stroke-width:1.0"/>
<line x1="416.67934999999994" y1="97.82745999999997" x2="410.41927" y2="103.94223999999997" style="stroke:blue;stroke-width:1.0"/>
<line x1="410.41927" y1="103.94223999999997" x2="407.53847999999994" y2="108.73814999999999" style="stroke:blue;stroke-width:1.0"/>
<line x1="407.53847999999994" y1="108.73814999999999" x2="407.53847999999994" y2="123.48881999999998" style="stroke:blue;stroke-width:1.0"/>
<line x1="407.53847999999994" y1="123.48881999999998" x2="407.53847999999994" y2="126.63663999999997" style="stroke:blue;stroke-width:1.0"/>
<line x1="407.53847999999994" y1="126.63663999999997" x2="407.53847999999994" y2="139.27304999999998" style="stroke:blue;stroke-width:1.0"/>
<line x1="407.53847999999994" y1="139.27304999999998" x2="407.53847999999994" y2="140.47324999999998" style="stroke:blue;stroke-width:1.0"/>
<line x1="407.53847999999994" y1="140.47324999999998" x2="407.53848" y2="140.07941999999997" style="stroke:blue;stroke-width:1.0"/>
<line x1="407.53848" y1="140.07941999999997" x2="407.53848" y2="137.41769" style="stroke:blue;stroke-width:1.0"/>
<line x1="407.53848" y1="137.41769" x2="407.53848" y2="133.60778" style="stroke:blue;stroke-width:1.0"/>
<line x1="407.53848" y1="133.60778" x2="407.53848" y2="127.37634999999997" style="stroke:blue;stroke-width:1.0"/>
<line x1="407.53848" y1="127.37634999999997" x2="407.53848" y2="113.47958999999999" style="stroke:blue;stroke-width:1.0"/>
<line x1="407.53848" y1="113.47958999999999" x2="407.53848" y2="111.00522999999998" style="stroke:blue;stroke-width:1.0"/>
<line x1="407.53848" y1="111.00522999999998" x2="407.53848" y2="81.81278" style="stroke:blue;stroke-width:1.0"/>
<line x1="407.53848" y1="81.81278" x2="407.53848" y2="78.64748" style="stroke:blue;stroke-width:1.0"/>
<line x1="407.53848" y1="78.64748" x2="407.53848" y2="58.82411" style="stroke:blue;stroke-width:1.0"/>
<line x1="407.53848" y1="58.82411" x2="407.53848" y2="50.110189999999996" style="stroke:blue;stroke-width:1.0"/>
<line x1="407.53848" y1="50.110189999999996" x2="407.53848" y2="44.11937" style="stroke:blue;stroke-width:1.0"/>
<line x1="407.53848" y1="44.11937" x2="408.39441999999997" y2="41.00731" style="stroke:blue;stroke-width:1.0"/>
<line x1="408.39441999999997" y1="41.00731" x2="410.00266999999997" y2="37.99117" style="stroke:blue;stroke-width:1.0"/>
<line x1="410.00266999999997" y1="37.99117" x2="411.05980999999997" y2="35.323949999999996" style="stroke:blue;stroke-width:1.0"/>
<line x1="411.05980999999997" y1="35.323949999999996" x2="413.39923999999996" y2="33.565929999999994" style="stroke:blue;stroke-width:1.0"/>
<line x1="413.39923999999996" y1="33.565929999999994" x2="414.96806999999995" y2="30.93875" style="stroke:blue;stroke-width:1.0"/>
<line x1="414.96806999999995" y1="30.93875" x2="415.48118999999997" y2="27.92342" style="stroke:blue;stroke-width:1.0"/>
<line x1="415.48118999999997" y1="27.92342" x2="414.93494" y2="24.885939999999998" style="stroke:blue;stroke-width:1.0"/>
<line x1="414.93494" y1="24.885939999999998" x2="413.40046" y2="22.308749999999996" style="stroke:blue;stroke-width:1.0"/>
<line x1="413.40046" y1="22.308749999999996" x2="411.09313" y2="20.591569999999997" style="stroke:blue;stroke-width:1.0"/>
<line x1="411.09313" y1="20.591569999999997" x2="408.38792" y2="20.0" style="stroke:blue;stroke-width:1.0"/>
<line x1="430.0" y1="150.97325" x2="330.0" y2="150.97325" style="stroke:green;stroke-width:3.0"/>
<line x1="430.0" y1="150.97325" x2="429.99999999999994" y2="150.97325" style="stroke:yellow;stroke-width:3.0"/>
<line x1="430.0" y1="150.97325" x2="430.0" y2="50.97325000000001" style="stroke:red;stroke-width:3.0"/>
</svg>
